<?xml version="1.0" encoding="UTF-8" standalone="no"?>
<!-- Created with Inkscape (http://www.inkscape.org/) -->

<svg
   xmlns:dc="http://purl.org/dc/elements/1.1/"
   xmlns:cc="http://creativecommons.org/ns#"
   xmlns:rdf="http://www.w3.org/1999/02/22-rdf-syntax-ns#"
   xmlns:svg="http://www.w3.org/2000/svg"
   xmlns="http://www.w3.org/2000/svg"
   xmlns:sodipodi="http://sodipodi.sourceforge.net/DTD/sodipodi-0.dtd"
   xmlns:inkscape="http://www.inkscape.org/namespaces/inkscape"
   width="480"
   height="800"
   id="svg3774"
   version="1.1"
   inkscape:version="0.48.2 r9819"
   sodipodi:docname="billdata.svg"
   inkscape:export-filename="/home/svenni/Prosjekter/Programmer/Bill/images/logo/billdata.png"
   inkscape:export-xdpi="180"
   inkscape:export-ydpi="180">
  <defs
     id="defs3776" />
  <sodipodi:namedview
     id="base"
     pagecolor="#ffffff"
     bordercolor="#666666"
     borderopacity="1.0"
     inkscape:pageopacity="1"
     inkscape:pageshadow="2"
     inkscape:zoom="0.74312807"
     inkscape:cx="386.5298"
     inkscape:cy="391.63037"
     inkscape:document-units="px"
     inkscape:current-layer="layer1"
     showgrid="false"
     inkscape:window-width="1680"
     inkscape:window-height="1030"
     inkscape:window-x="1598"
     inkscape:window-y="-3"
     inkscape:window-maximized="1"
     width="480px" />
  <metadata
     id="metadata3779">
    <rdf:RDF>
      <cc:Work
         rdf:about="">
        <dc:format>image/svg+xml</dc:format>
        <dc:type
           rdf:resource="http://purl.org/dc/dcmitype/StillImage" />
        <dc:title></dc:title>
      </cc:Work>
    </rdf:RDF>
  </metadata>
  <g
     inkscape:label="Layer 1"
     inkscape:groupmode="layer"
     id="layer1"
     transform="translate(0,-252.36218)">
    <rect
       style="opacity:0.37333333000000002;fill:#51d4e8;fill-opacity:1;stroke:#888a85;stroke-width:0.60000001999999997;stroke-linecap:round;stroke-linejoin:round;stroke-miterlimit:4;stroke-opacity:1;stroke-dasharray:none;stroke-dashoffset:0"
       id="rect4476"
       width="492.5127"
       height="822.20013"
       x="-8.0739784"
       y="-8.7435055"
       transform="translate(0,252.36218)" />
    <rect
       style="opacity:0.47111111;fill:#2583e8;fill-opacity:1;stroke:#f3d804;stroke-width:0.60000001999999997;stroke-linecap:round;stroke-linejoin:round;stroke-miterlimit:4;stroke-opacity:1;stroke-dasharray:none;stroke-dashoffset:0"
       id="rect2998"
       width="493.85834"
       height="542.30219"
       x="-8.0739784"
       y="438.73981" />
    <path
       style="fill:none;stroke:#000000;stroke-width:1px;stroke-linecap:butt;stroke-linejoin:miter;stroke-opacity:1"
       d="m -10.765304,495.25767 504.623654,0"
       id="path3004"
       inkscape:connector-curvature="0" />
    <path
       style="fill:none;stroke:#000000;stroke-width:1px;stroke-linecap:butt;stroke-linejoin:miter;stroke-opacity:1"
       d="m -12.110968,561.19516 507.314978,0"
       id="path3006"
       inkscape:connector-curvature="0" />
    <path
       style="fill:none;stroke:#000000;stroke-width:1px;stroke-linecap:butt;stroke-linejoin:miter;stroke-opacity:1"
       d="m -10.765304,629.25767 504.623664,0"
       id="path3004-7"
       inkscape:connector-curvature="0" />
    <path
       style="fill:none;stroke:#000000;stroke-width:1px;stroke-linecap:butt;stroke-linejoin:miter;stroke-opacity:1"
       d="m -12.110968,695.19516 507.314968,0"
       id="path3006-6"
       inkscape:connector-curvature="0" />
    <path
       style="fill:none;stroke:#000000;stroke-width:1px;stroke-linecap:butt;stroke-linejoin:miter;stroke-opacity:1"
       d="m -10.765304,765.25767 504.623664,0"
       id="path3004-3"
       inkscape:connector-curvature="0" />
    <path
       style="fill:none;stroke:#000000;stroke-width:1px;stroke-linecap:butt;stroke-linejoin:miter;stroke-opacity:1"
       d="m -12.110968,831.19516 507.314968,0"
       id="path3006-1"
       inkscape:connector-curvature="0" />
    <path
       style="fill:none;stroke:#000000;stroke-width:1px;stroke-linecap:butt;stroke-linejoin:miter;stroke-opacity:1"
       d="m -10.765304,899.25767 504.623664,0"
       id="path3004-7-7"
       inkscape:connector-curvature="0" />
    <path
       style="fill:none;stroke:#000000;stroke-width:1px;stroke-linecap:butt;stroke-linejoin:miter;stroke-opacity:1"
       d="m -10.765304,439.25767 504.623654,0"
       id="path3004-1"
       inkscape:connector-curvature="0" />
    <path
       style="fill:none;stroke:#000000;stroke-width:1px;stroke-linecap:butt;stroke-linejoin:miter;stroke-opacity:1"
       d="m -9.4196414,983.73336 504.6236514,0"
       id="path3004-78"
       inkscape:connector-curvature="0" />
    <path
       style="fill:none;stroke:#000000;stroke-width:1px;stroke-linecap:butt;stroke-linejoin:miter;stroke-opacity:1"
       d="m 118.41835,731.37118 0,79.39412"
       id="path3081"
       inkscape:connector-curvature="0"
       transform="translate(0,252.36218)" />
    <path
       style="fill:none;stroke:#000000;stroke-width:1px;stroke-linecap:butt;stroke-linejoin:miter;stroke-opacity:1"
       d="m 304.48879,729.58697 0,76.12219"
       id="path3083"
       inkscape:connector-curvature="0"
       transform="translate(0,252.36218)" />
    <path
       style="fill:none;stroke:#000000;stroke-width:1px;stroke-linecap:butt;stroke-linejoin:miter;stroke-opacity:1"
       d="m -9.9094104,384.86325 504.3095704,0"
       id="path3085"
       inkscape:connector-curvature="0" />
    <path
       style="fill:none;stroke:#000000;stroke-width:1px;stroke-linecap:butt;stroke-linejoin:miter;stroke-opacity:1"
       d="m 154.70485,383.91172 0,54.23707"
       id="path3087"
       inkscape:connector-curvature="0" />
    <path
       style="fill:none;stroke:#000000;stroke-width:1px;stroke-linecap:butt;stroke-linejoin:miter;stroke-opacity:1"
       d="m 319.3191,382.00867 0,57.09165"
       id="path3089"
       inkscape:connector-curvature="0" />
    <text
       xml:space="preserve"
       style="font-size:48.43140793px;font-style:normal;font-weight:normal;line-height:125%;letter-spacing:0px;word-spacing:0px;fill:#000000;fill-opacity:1;stroke:none;font-family:Bitstream Vera Sans"
       x="96.789757"
       y="359.58353"
       id="text3091"
       sodipodi:linespacing="125%"><tspan
         sodipodi:role="line"
         id="tspan3093"
         x="96.789757"
         y="359.58353"
         style="font-style:normal;font-variant:normal;font-weight:normal;font-stretch:normal;font-family:Freebooter Script;-inkscape-font-specification:Freebooter Script">Split That Bill</tspan></text>
    <text
       xml:space="preserve"
       style="font-size:37.53167725px;font-style:normal;font-weight:normal;line-height:125%;letter-spacing:0px;word-spacing:0px;fill:#ef2929;fill-opacity:1;stroke:none;font-family:Bitstream Vera Sans"
       x="172.49838"
       y="422.1073"
       id="text3095"
       sodipodi:linespacing="125%"
       transform="scale(0.9783276,1.0221525)"><tspan
         sodipodi:role="line"
         id="tspan3097"
         x="172.49838"
         y="422.1073"
         style="font-style:normal;font-variant:normal;font-weight:500;font-stretch:normal;fill:#ef2929;font-family:Kinnari;-inkscape-font-specification:Kinnari Medium">7648235</tspan></text>
    <text
       xml:space="preserve"
       style="font-size:39.84346771px;font-style:normal;font-weight:normal;line-height:125%;letter-spacing:0px;word-spacing:0px;fill:#ef2929;fill-opacity:1;stroke:none;font-family:Bitstream Vera Sans"
       x="362.26877"
       y="932.8205"
       id="text3095-0"
       sodipodi:linespacing="125%"
       transform="scale(0.90302952,1.1073835)"><tspan
         sodipodi:role="line"
         id="tspan3097-4"
         x="362.26877"
         y="932.8205"
         style="font-style:normal;font-variant:normal;font-weight:500;font-stretch:normal;fill:#ef2929;font-family:Kinnari;-inkscape-font-specification:Kinnari Medium">7648235</tspan></text>
    <text
       xml:space="preserve"
       style="font-size:15.42885876px;font-style:normal;font-weight:normal;line-height:125%;letter-spacing:0px;word-spacing:0px;fill:#000000;fill-opacity:1;stroke:none;font-family:Bitstream Vera Sans"
       x="14.032248"
       y="401.67502"
       id="text3139"
       sodipodi:linespacing="125%"><tspan
         sodipodi:role="line"
         id="tspan3141"
         x="14.032248"
         y="401.67502"
         style="font-style:normal;font-variant:normal;font-weight:normal;font-stretch:normal;font-family:Bitstream Vera Serif;-inkscape-font-specification:Bitstream Vera Serif">KJHISAP</tspan></text>
    <text
       xml:space="preserve"
       style="font-size:16.84505463px;font-style:normal;font-weight:normal;line-height:125%;letter-spacing:0px;word-spacing:0px;fill:#000000;fill-opacity:1;stroke:none;font-family:Bitstream Vera Sans"
       x="125.55136"
       y="1001.6011"
       id="text3139-82"
       sodipodi:linespacing="125%"><tspan
         sodipodi:role="line"
         id="tspan3141-8"
         x="125.55136"
         y="1001.6011"
         style="font-style:normal;font-variant:normal;font-weight:normal;font-stretch:normal;font-family:Bitstream Vera Serif;-inkscape-font-specification:Bitstream Vera Serif">AFGKLJ</tspan></text>
    <text
       xml:space="preserve"
       style="font-size:15.42885876px;font-style:normal;font-weight:normal;line-height:125%;letter-spacing:0px;word-spacing:0px;fill:#000000;fill-opacity:1;stroke:none;font-family:Bitstream Vera Sans"
       x="164.74652"
       y="401.67502"
       id="text3139-6"
       sodipodi:linespacing="125%"><tspan
         sodipodi:role="line"
         id="tspan3141-5"
         x="164.74652"
         y="401.67502"
         style="font-style:normal;font-variant:normal;font-weight:normal;font-stretch:normal;font-family:Bitstream Vera Serif;-inkscape-font-specification:Bitstream Vera Serif">KSADUF</tspan></text>
    <text
       xml:space="preserve"
       style="font-size:15.42885876px;font-style:normal;font-weight:normal;line-height:125%;letter-spacing:0px;word-spacing:0px;fill:#000000;fill-opacity:1;stroke:none;font-family:Bitstream Vera Sans"
       x="331.60873"
       y="401.67502"
       id="text3139-7"
       sodipodi:linespacing="125%"><tspan
         sodipodi:role="line"
         id="tspan3141-4"
         x="331.60873"
         y="401.67502"
         style="font-style:normal;font-variant:normal;font-weight:normal;font-stretch:normal;font-family:Bitstream Vera Serif;-inkscape-font-specification:Bitstream Vera Serif">POWUI</tspan></text>
    <text
       xml:space="preserve"
       style="font-size:15.42885876px;font-style:normal;font-weight:normal;line-height:125%;letter-spacing:0px;word-spacing:0px;fill:#000000;fill-opacity:1;stroke:none;font-family:Bitstream Vera Sans"
       x="7.303937"
       y="1000.4951"
       id="text3139-6-0"
       sodipodi:linespacing="125%"><tspan
         sodipodi:role="line"
         id="tspan3141-5-2"
         x="7.303937"
         y="1000.4951"
         style="font-style:normal;font-variant:normal;font-weight:normal;font-stretch:normal;font-family:Bitstream Vera Serif;-inkscape-font-specification:Bitstream Vera Serif">KSADUF</tspan></text>
    <text
       xml:space="preserve"
       style="font-size:15.42885876px;font-style:normal;font-weight:normal;line-height:125%;letter-spacing:0px;word-spacing:0px;fill:#000000;fill-opacity:1;stroke:none;font-family:Bitstream Vera Sans"
       x="322.18912"
       y="1000.4951"
       id="text3139-7-8"
       sodipodi:linespacing="125%"><tspan
         sodipodi:role="line"
         id="tspan3141-4-4"
         x="322.18912"
         y="1000.4951"
         style="font-style:normal;font-variant:normal;font-weight:normal;font-stretch:normal;font-family:Bitstream Vera Serif;-inkscape-font-specification:Bitstream Vera Serif">POWUI</tspan></text>
    <path
       style="fill:none;stroke:#888a85;stroke-width:1px;stroke-linecap:butt;stroke-linejoin:miter;stroke-opacity:1"
       d="m 59.209175,510.05997 c -3.726655,1.46769 -3.44191,5.48632 -5.382652,8.07398 -0.761222,1.01496 -2.038584,1.60342 -2.691327,2.69132 -0.729788,1.21632 -0.615874,2.82068 -1.345663,4.03699 -0.652742,1.08791 -1.930104,1.67637 -2.691326,2.69133 -0.601799,0.8024 -0.743864,1.88893 -1.345663,2.69132 -0.761222,1.01497 -2.123945,1.55657 -2.691326,2.69133 -0.401199,0.8024 0,1.79422 0,2.69133 0,0.44855 0.317176,1.02848 0,1.34566 -0.317176,0.31718 -1.028487,-0.31718 -1.345663,0 -0.317176,0.31718 0,0.89711 0,1.34566 0,0.49418 -0.05415,5.3285 0,5.38265 0.317176,0.31718 1.028487,-0.31717 1.345663,0 0.317176,0.31718 -0.317176,1.02849 0,1.34567 0.634352,0.63435 2.056975,-0.63435 2.691326,0 0.317176,0.31717 -0.317176,1.02849 0,1.34566 0.0013,10e-4 4.03089,-0.002 4.036989,0 0.601799,0.2006 0.743865,1.14506 1.345663,1.34566 0.746817,0.24894 9.152108,0 10.765305,0 0.92921,0 4.973522,0.20457 5.382652,0 0.567382,-0.28369 0.743864,-1.14506 1.345663,-1.34566 1.276608,-0.42554 2.760381,0.42554 4.036989,0 1.903055,-0.63435 3.436551,-2.2048 5.382653,-2.69133 0.870323,-0.21758 1.840254,0.2837 2.691326,0 0.601799,-0.20059 0.81785,-0.99378 1.345663,-1.34566 0.834545,-0.55636 1.739799,-1.02849 2.691326,-1.34566 0.425536,-0.14185 1.028487,0.31717 1.345663,0 0.317176,-0.31718 -0.317176,-1.02849 0,-1.34566 0.317176,-0.31718 1.028487,0.31717 1.345663,0 0.317176,-0.31718 -0.317176,-1.02849 0,-1.34567 0.317176,-0.31717 1.028487,0.31718 1.345663,0 0.317176,-0.31717 -0.317176,-1.02848 0,-1.34566 0.317176,-0.31718 1.028487,0.31718 1.345663,0 0.317176,-0.31718 0,-0.89711 0,-1.34566 0,-0.49418 0.05415,-5.3285 0,-5.38266 -0.317176,-0.31717 -1.028487,0.31718 -1.345663,0 -0.317176,-0.31717 0.317176,-1.02848 0,-1.34566 -0.317176,-0.31717 -1.028487,0.31718 -1.345663,0 -0.317176,-0.31717 0.317176,-1.02849 0,-1.34566 -0.05415,-0.0541 -4.888475,0 -5.382652,0 -0.448554,0 -0.897109,0 -1.345663,0 -0.448554,0 -1.028487,-0.31718 -1.345663,0 -0.317176,0.31717 0.317176,1.02849 0,1.34566 -0.317176,0.31718 -0.944464,-0.2006 -1.345663,0 -5.600328,2.80016 1.438561,-0.0929 -1.345663,2.69133 -0.317176,0.31717 -1.028488,-0.31718 -1.345663,0 -0.317176,0.31717 0.317175,1.02848 0,1.34566 -0.317176,0.31718 -1.028488,-0.31718 -1.345663,0 -0.317176,0.31718 0,0.89711 0,1.34566 0,0.44856 0,0.89711 0,1.34567 0,0.60603 -0.204766,3.62745 0,4.03699 0.28369,0.56738 1.061972,0.77828 1.345663,1.34566 0.200599,0.4012 -0.2006,0.94446 0,1.34566 0.567381,1.13476 2.123944,1.55657 2.691326,2.69133 0.200599,0.4012 -0.317176,1.02849 0,1.34566 0.634351,0.63435 1.888927,-0.4012 2.691326,0 0.567381,0.28369 0.743864,1.14506 1.345663,1.34566 0.615996,0.20534 5.977224,0 6.728315,0 1.345663,0 2.691326,0 4.036989,0 0.897109,0 1.840255,0.28369 2.691327,0 0.601798,-0.2006 0.743864,-1.14506 1.345663,-1.34566 0.851072,-0.28369 1.840256,0.28369 2.691326,0 1.203603,-0.4012 1.556563,-2.12394 2.691333,-2.69133 0.4012,-0.20059 0.94446,0.2006 1.34566,0 0.56738,-0.28369 0.77828,-1.06197 1.34566,-1.34566 0.4012,-0.2006 1.02849,0.31718 1.34567,0 0.31717,-0.31717 -0.31718,-1.02849 0,-1.34566 0.31717,-0.31718 1.02848,0.31717 1.34566,0 0.63435,-0.63435 -0.4012,-1.88893 0,-2.69133 0.17517,-0.35034 2.3976,-1.63938 1.34566,-2.69132 -0.70923,-0.70923 -1.85678,-0.7893 -2.69132,-1.34567 -1.05563,-0.70375 -1.55657,-2.12394 -2.69133,-2.69132 -0.4012,-0.2006 -1.02849,0.31717 -1.34566,0 -0.31718,-0.31718 0.31717,-1.02849 0,-1.34567 -0.63436,-0.63435 -2.05698,0.63436 -2.691333,0 -0.31718,-0.31717 0.31718,-1.02848 0,-1.34566 -0.31718,-0.31717 -1.345663,0.44856 -1.345663,0 0,-0.44855 0.897113,0 1.345663,0 0.448553,0 0.897113,0 1.345663,0 3.73168,0 -2.148063,-0.2006 4.03699,1.34566 0.87033,0.21759 1.821,-0.21758 2.69133,0 0.97305,0.24327 1.71827,1.1024 2.69132,1.34567 0.91067,0.22766 8.5537,0 9.41965,0 0.8971,0 1.821,-0.21758 2.69132,0 6.18505,1.54626 0.30531,1.34566 4.03699,1.34566 0.44856,0 1.79422,0 1.34566,0 -2.69132,0 -5.38265,0 -8.07397,0 -0.89711,0 -1.82101,-0.21758 -2.69133,0 -0.97305,0.24326 -1.7398,1.02849 -2.69133,1.34566 -0.42553,0.14185 -1.02848,-0.31717 -1.34566,0 -0.31718,0.31718 0.31718,1.02849 0,1.34567 -0.31718,0.31717 -1.02849,-0.31718 -1.34566,0 -0.31718,0.31717 0,0.89711 0,1.34566 0,0.44855 -0.31718,1.02849 0,1.34566 0.31717,0.31718 1.02848,-0.31717 1.34566,0 0.31718,0.31718 -0.31718,1.02849 0,1.34567 0.31718,0.31717 0.89711,0 1.34566,0 0.44856,0 1.02849,0.31717 1.34567,0 0.31717,-0.31718 -0.31718,-1.02849 0,-1.34567 0.31717,-0.31717 1.02848,0.31718 1.34566,0 0.31718,-0.31717 -0.31718,-1.02848 0,-1.34566 0.31718,-0.31718 1.02849,0.31718 1.34566,0 0.31718,-0.31718 0,-0.89711 0,-1.34566 0,-1.79422 0,-3.58844 0,-5.38266 0,-0.44855 -0.44855,-1.34566 0,-1.34566 0.44856,0 0,0.89711 0,1.34566 0,0.89711 0,1.79422 0,2.69133 0,3.58844 -0.44855,-0.44855 1.34567,1.34566 2.78422,2.78423 -4.25467,-0.10883 1.34566,2.69133 0.8024,0.4012 1.88893,-0.4012 2.69132,0 0.56739,0.28369 0.77829,1.06197 1.34567,1.34566 0.0704,0.0352 3.96659,0.0352 4.03699,0 0.56738,-0.28369 0.81785,-0.99379 1.34566,-1.34566 0.83455,-0.55636 1.9821,-0.63644 2.69133,-1.34566 0.70922,-0.70923 0.7893,-1.85678 1.34566,-2.69133 0.35187,-0.52781 0.89711,-0.89711 1.34566,-1.34566 1.79422,-1.79422 3.79755,-3.40127 5.38265,-5.38265 1.01032,-1.26289 1.68102,-2.77411 2.69133,-4.03699 0.79255,-0.9907 1.98758,-1.63571 2.69133,-2.69133 1.66909,-2.50363 2.3679,-5.57034 4.03699,-8.07398 0.35187,-0.52781 0.8971,-0.89711 1.34566,-1.34566 0.44855,-0.44856 1.06197,-0.77828 1.34566,-1.34566 0.2006,-0.4012 -0.31717,-1.02849 0,-1.34567 0.31718,-0.31717 1.02849,0.31718 1.34567,0 0.31717,-0.31717 0.44855,-1.34566 0,-1.34566 -2.23151,0 -0.94356,1.88712 -1.34567,2.69133 -0.72327,1.44654 -1.65596,2.79455 -2.69132,4.03698 -1.21831,1.46197 -2.7985,2.59209 -4.03699,4.03699 -2.34701,2.73818 -6.68403,8.98359 -8.07398,12.11097 -0.75113,1.69004 -0.61714,3.68275 -1.34566,5.38265 -0.63708,1.48652 -2.09069,2.53538 -2.69133,4.03699 -0.49977,1.24942 0,2.69133 0,4.03699 0,0.44856 -0.31718,1.02849 0,1.34566 0.31718,0.31718 0.89711,0 1.34566,0 0.44856,0 1.02849,0.31718 1.34567,0 0.31717,-0.31717 -0.2006,-0.94446 0,-1.34566 0.28369,-0.56738 0.8971,-0.89711 1.34566,-1.34566 1.79422,-1.79422 3.58843,-3.58844 5.38265,-5.38265 0.89711,-0.89711 1.98758,-1.6357 2.69133,-2.69133 0.24881,-0.37322 -0.31718,-1.02849 0,-1.34566 0.31717,-0.31718 0.89711,0 1.34566,0 0.44855,0 1.02849,-0.31718 1.34566,0 0.31718,0.31717 -0.31717,1.02848 0,1.34566 0.63435,0.63435 2.69133,-0.89711 2.69133,0 0,0.4339 -2.31748,1.94363 -2.69133,2.69133 -0.2006,0.4012 0.2006,0.94446 0,1.34566 -0.28369,0.56738 -1.06197,0.77828 -1.34566,1.34566 -0.2006,0.4012 0,0.89711 0,1.34567 0,0.95675 -0.56524,4.03698 1.34566,4.03698 0.44856,0 0,-0.8971 0,-1.34566 0,-0.32636 0.0433,-3.99371 0,-4.03699 -0.31717,-0.31717 -1.02848,0.31718 -1.34566,0 -0.31718,-0.31717 -0.31718,-1.02848 0,-1.34566 0.31718,-0.31718 0.89711,0 1.34566,0 0.44856,0 0.89711,0 1.34567,0 3.58843,0 7.17687,0 10.7653,0 3.13988,0 6.27976,0 9.41964,0 0.89711,0 1.84026,0.28369 2.69133,0 0.6018,-0.2006 0.77828,-1.06197 1.34566,-1.34566 0.4012,-0.2006 0.89711,0 1.34566,0 1.34567,0 2.73151,-0.32637 4.03699,0 0.97305,0.24326 1.79422,0.89711 2.69133,1.34566 0.89711,0.44855 1.85678,0.7893 2.69133,1.34566 0.52781,0.35188 0.81785,0.99379 1.34566,1.34567 1.92377,1.28251 5.58833,1.75702 6.72831,4.03698 0.2006,0.4012 -0.2006,0.94447 0,1.34567 0.28369,0.56738 1.06198,0.77828 1.34567,1.34566 0.2006,0.4012 0,0.89711 0,1.34566 0,0.44856 0.31717,1.02849 0,1.34567 -0.27511,0.2751 -3.50345,-0.26678 -4.03699,0 -0.56738,0.28369 -0.77828,1.06197 -1.34567,1.34566 -0.40119,0.2006 -0.8971,0 -1.34566,0 -0.89711,0 -1.79422,0 -2.69132,0 -0.44856,0 -0.92013,0.14185 -1.34567,0 -0.95152,-0.31718 -1.7398,-1.02849 -2.69132,-1.34566 -0.85108,-0.28369 -1.88893,0.4012 -2.69133,0 -6.15857,-3.07929 5.71021,0.55774 -4.03699,-2.69133 -0.75922,-0.25307 -3.15274,0 -4.03699,0"
       id="path3267"
       inkscape:connector-curvature="0" />
    <path
       style="fill:none;stroke:#888a85;stroke-width:1px;stroke-linecap:butt;stroke-linejoin:miter;stroke-opacity:1"
       d="m 254.33032,514.09696 c -3.71621,1.91823 -4.45977,7.74058 -6.72831,10.7653 -0.76123,1.01496 -1.89878,1.70064 -2.69133,2.69133 -1.01031,1.26289 -1.65596,2.79455 -2.69133,4.03699 -0.15132,0.18159 -8.01275,7.98215 -8.07397,8.07398 -0.78682,1.18022 -0.71132,2.76828 -1.34567,4.03698 -0.72327,1.44655 -1.85924,2.65018 -2.69132,4.03699 -0.51604,0.86007 -0.7893,1.85679 -1.34567,2.69133 -0.35187,0.52781 -1.06197,0.77828 -1.34566,1.34566 -0.2006,0.4012 0,0.89711 0,1.34567 0,0.44855 -0.31718,1.02848 0,1.34566 0.31718,0.31718 0.89711,0 1.34566,0 0.44856,0 0.89711,0 1.34567,0 0.49417,0 5.3285,0.0541 5.38265,0 0.31717,-0.31718 -0.31718,-1.02849 0,-1.34566 0.31717,-0.31718 0.92013,0.14184 1.34566,0 0.95153,-0.31718 1.76007,-0.97316 2.69133,-1.34567 1.317,-0.5268 2.82067,-0.61587 4.03699,-1.34566 3.40055,-3.40055 1.55656,-2.12394 5.38265,-4.03699 1.70749,-0.85375 5.83121,-2.24279 6.72832,-4.03699 0.20059,-0.4012 -0.31718,-1.02849 0,-1.34566 0.31717,-0.31718 1.34566,-0.44856 1.34566,0 0,0.89711 -2.05698,-0.63435 -2.69133,0 -0.31717,0.31717 0.31718,1.02849 0,1.34566 -0.31717,0.31718 -1.02849,-0.31717 -1.34566,0 -0.31718,0.31718 0.2006,0.94447 0,1.34566 -0.28369,0.56739 -1.06197,0.77829 -1.34566,1.34567 -0.4012,0.8024 0.8971,2.69132 0,2.69132 -0.44856,0 -0.31718,-1.02848 0,-1.34566 0.31717,-0.31717 0.94446,0.2006 1.34566,0 0.56738,-0.28369 0.81785,-0.99379 1.34566,-1.34566 0.83455,-0.55637 1.9821,-0.63644 2.69133,-1.34567 0.31717,-0.31717 -0.31718,-1.02848 0,-1.34566 0.31717,-0.31717 0.94446,0.2006 1.34566,0 5.60033,-2.80016 -1.43856,0.0929 1.34566,-2.69132 0.31718,-0.31718 0.94447,0.2006 1.34567,0 2.97533,-1.48767 0.41759,-0.83518 1.34566,-2.69133 0.56738,-1.13476 2.29013,-1.48773 2.69133,-2.69133 0.0333,-0.0998 0.14772,-7.77852 0,-8.07397 -0.28369,-0.56739 -1.06198,-0.77829 -1.34567,-1.34567 -0.2006,-0.4012 0.31718,-1.02849 0,-1.34566 -0.31717,-0.31718 -1.02848,0.31717 -1.34566,0 -0.31718,-0.31718 0.31718,-1.02849 0,-1.34566 -0.31718,-0.31718 -1.34566,0.44855 -1.34566,0 0,-0.44856 0.89711,0 1.34566,0 0.44855,0 0.89711,0 1.34566,0 1.60889,0 7.19572,0.29275 8.07398,0 0.95153,-0.31718 1.85678,-0.7893 2.69133,-1.34567 0.52781,-0.35187 0.81785,-0.99379 1.34566,-1.34566 9.75684,-4.87842 -2.12768,1.41845 4.03699,-2.69133 0.83455,-0.55636 1.85678,-0.7893 2.69133,-1.34566 1.31969,-0.8798 2.22442,-2.63627 2.69132,-4.03699 0.14185,-0.42553 0,-0.89711 0,-1.34566 0.44856,-0.44856 1.06197,-0.77828 1.34567,-1.34566 0.2006,-0.4012 0.31717,-1.02849 0,-1.34567 -0.31718,-0.31717 -1.02849,-0.31717 -1.34567,0 -0.31717,0.31718 0.24882,0.97245 0,1.34567 -1.4075,2.11125 -3.79754,3.40127 -5.38265,5.38265 -3.96792,4.9599 -1.52138,2.53564 -4.03699,6.72831 -4.87153,8.11923 -0.96099,0.57632 -4.03699,6.72832 -0.44855,0.89711 -1.1024,1.71827 -1.34566,2.69132 -0.0393,0.15704 -0.0436,6.59744 0,6.72832 0.69801,2.09402 3.78005,1.34566 5.38265,1.34566 0.44856,0 1.14506,0.4012 1.34566,0 0.6018,-1.2036 0,-2.69132 0,-4.03699 0,-0.44855 0.44856,-1.34566 0,-1.34566 -0.63435,0 -0.8971,0.89711 -1.34566,1.34566 -0.44855,0.44856 -0.99379,0.81785 -1.34566,1.34567 -0.55637,0.83454 -0.74387,1.88892 -1.34567,2.69132 -0.76122,1.01497 -2.12394,1.55657 -2.69132,2.69133 -0.4012,0.8024 0,1.79422 0,2.69132 -0.44856,0.89711 -0.7893,1.85679 -1.34566,2.69133 -0.35188,0.52781 -1.34567,0.71131 -1.34567,1.34566 0,0.44856 0.89711,0 1.34567,0 3.15582,0 -0.63436,0.31718 2.69132,-1.34566 0.4012,-0.2006 0.94447,0.2006 1.34566,0 0.56739,-0.28369 0.77829,-1.06197 1.34567,-1.34566 1.2687,-0.63435 2.71999,-0.81886 4.03699,-1.34567 6.09802,-2.43921 0.18635,-0.12423 4.03699,-2.69132 0.83454,-0.55636 1.85678,-0.7893 2.69132,-1.34566 0.52781,-0.35188 0.77828,-1.06198 1.34567,-1.34567 0.80421,-0.4021 2.69132,0.88584 2.69132,-1.34566 0,-0.44855 -1.02849,-0.31718 -1.34566,0 -0.31718,0.31718 0.14184,0.92013 0,1.34566 -0.31718,0.95153 -1.02849,1.7398 -1.34566,2.69133 -0.2837,0.85107 0,1.79422 0,2.69132 0,1.34567 -0.6018,2.8334 0,4.03699 0.2006,0.4012 0.94446,-0.2006 1.34566,0 0.56738,0.28369 0.77828,1.06198 1.34566,1.34567 0.40953,0.20476 3.43096,0 4.03699,0 0.70368,0 5.02882,0.17691 5.38265,0 0.56738,-0.28369 0.77828,-1.06198 1.34567,-1.34567 0.4012,-0.2006 0.94446,0.2006 1.34566,0 0.56738,-0.28369 0.89711,-0.8971 1.34566,-1.34566 0.44856,-0.44855 1.06197,-0.77828 1.34567,-1.34566 0.20059,-0.4012 -0.31718,-1.02849 0,-1.34567 0.31717,-0.31717 1.02848,0.31718 1.34566,0 0.13456,-0.13456 0.13456,-3.90242 0,-4.03698 -0.31718,-0.31718 -0.89711,0 -1.34566,0 -0.44856,0 -0.94447,-0.2006 -1.34567,0 -0.56738,0.28369 -0.89711,0.8971 -1.34566,1.34566 -0.44856,0.44855 -0.89711,0.89711 -1.34566,1.34566 -2.0835,2.0835 -4.03699,3.45943 -4.03699,6.72832 0,0.44855 -0.2006,0.94446 0,1.34566 0.28369,0.56738 0.89711,0.89711 1.34566,1.34566 0.89711,0.89711 1.79422,1.79422 2.69133,2.69133 0.44855,0.44855 0.81785,0.99379 1.34566,1.34566 0.83454,0.55637 1.79422,0.89711 2.69133,1.34567 0.8971,0.44855 1.85678,0.7893 2.69132,1.34566 0.52781,0.35187 0.74387,1.14506 1.34566,1.34566 0.85108,0.28369 1.79422,0 2.69133,0 0.89711,0 1.79422,0 2.69133,0 2.24277,0 4.52909,0.43985 6.72831,0 0.98352,-0.1967 1.76007,-0.97316 2.69133,-1.34566 1.317,-0.5268 2.76828,-0.71131 4.03699,-1.34566 3.39507,-1.69754 4.22505,-2.8794 6.72831,-5.38266"
       id="path3269"
       inkscape:connector-curvature="0" />
    <path
       style="fill:none;stroke:#888a85;stroke-width:1px;stroke-linecap:butt;stroke-linejoin:miter;stroke-opacity:1"
       d="m 61.900501,577.34312 c -1.794217,1.34566 -4.036989,5.83121 -5.382652,4.03699 -1.345663,-1.79422 5.382652,-6.27976 5.382652,-4.03699 0,2.87215 -3.789471,4.33854 -5.382652,6.72832 -0.248813,0.37322 0.200599,0.94446 0,1.34566 -0.283691,0.56738 -0.993788,0.81785 -1.345663,1.34566 -1.780436,2.67066 -3.042701,6.43678 -4.03699,9.41964 -0.448554,1.34567 -0.897108,2.69133 -1.345663,4.03699 -0.448554,1.34567 -0.711311,2.76829 -1.345663,4.03699 -0.723272,1.44655 -1.968054,2.59045 -2.691326,4.03699 -0.634351,1.26871 -0.897108,2.69133 -1.345663,4.03699 -1.662839,4.98852 -0.711311,2.76829 -2.691326,6.72832 -0.448554,0.89711 -0.7893,1.85678 -1.345663,2.69132 -0.368318,0.55248 -4.036989,3.76157 -4.036989,4.03699 0,0.44856 0.897108,0 1.345663,0 0.897109,0 1.811639,0.17594 2.691326,0 1.390908,-0.27818 2.719988,-0.81886 4.036989,-1.34566 0.93126,-0.37251 1.707806,-1.14896 2.691326,-1.34566 1.319531,-0.26391 2.717458,0.2639 4.036989,0 0.983521,-0.19671 1.760066,-0.97316 2.691327,-1.34567 1.317001,-0.5268 2.719988,-0.81886 4.036989,-1.34566 0.93126,-0.3725 1.718275,-1.1024 2.691326,-1.34566 0.870323,-0.21758 1.840254,0.28369 2.691326,0 0.601799,-0.2006 0.711311,-1.34567 1.345663,-1.34567 0.448554,0 0,0.89711 0,1.34567 0,0.44855 0.317176,1.02848 0,1.34566 -0.317176,0.31718 -1.028487,-0.31718 -1.345663,0 -0.634352,0.63435 0.634352,2.05697 0,2.69133 -0.317176,0.31717 -1.028487,-0.31718 -1.345663,0 -0.317176,0.31717 0,0.8971 0,1.34566 0,0.44855 -0.317176,1.02849 0,1.34566 0.1146,0.1146 3.369059,0.22265 4.036989,0 0.951528,-0.31717 1.831263,-0.82962 2.691326,-1.34566 1.386811,-0.83209 2.650178,-1.85924 4.036989,-2.69133 0.860064,-0.51604 1.831263,-0.82962 2.691327,-1.34566 2.704319,-1.62259 6.298411,-4.34224 9.419641,-5.38265 0.425536,-0.14185 0.897109,0 1.345663,0 0.448554,0 1.028487,-0.31718 1.345663,0 0.436262,0.43626 -0.427044,5.87422 0,6.72831 0.283691,0.56738 1.061973,0.77828 1.345663,1.34567 0.2006,0.40119 -0.317176,1.02848 0,1.34566 0.317176,0.31717 0.897109,0 1.345663,0 1.083307,0 4.538043,0.28154 5.382653,0 9.747202,-3.24907 -2.121583,0.38796 4.036989,-2.69133 1.435373,-0.71768 1.798733,1.33214 2.691333,-1.34566 0.42553,-1.27661 0,-2.69133 0,-4.03699 0,-0.44855 0,-0.89711 0,-1.34566 0,-0.44856 0.31717,-1.02849 0,-1.34567 -0.31718,-0.31717 -0.89711,0 -1.34567,0 -0.44855,0 -0.89711,0 -1.345663,0 -0.32636,0 -3.993713,-0.0433 -4.036989,0 -0.317176,0.31718 0.200599,0.94447 0,1.34567 -0.567382,1.13476 -2.123945,1.55656 -2.691327,2.69132 -0.138016,0.27604 -0.189773,3.84722 0,4.03699 0.317176,0.31718 1.028488,-0.31717 1.345663,0 0.317176,0.31718 -0.317175,1.02849 0,1.34567 0.317176,0.31717 0.897109,0 1.345664,0 0.448554,0 0.897108,0 1.345663,0 1.642624,0 3.103066,0.52217 4.036989,-1.34567 0.4012,-0.8024 -0.63435,-2.05697 0,-2.69132 0.31718,-0.31718 1.02849,0.31717 1.34567,0 0.31717,-0.31718 -0.31718,-1.02849 0,-1.34567 0.31717,-0.31717 1.02848,-0.31717 1.34566,0 0.31717,0.31718 -0.31718,1.02849 0,1.34567 0.63435,0.63435 2.05697,-0.63436 2.69133,0 0.31717,0.31717 -0.31718,1.02848 0,1.34566 0.31717,0.31718 0.8971,0 1.34566,0 0.88424,0 3.27777,0.25307 4.03699,0 9.7472,-3.24907 -2.12158,0.38796 4.03699,-2.69133 0.4012,-0.2006 0.94446,0.2006 1.34566,0 0.54353,-0.27176 5.34232,-5.34231 5.38265,-5.38265 0.44856,-0.44855 0.71131,-1.34566 1.34566,-1.34566 0.44856,0 0,0.89711 0,1.34566 0,0.49418 -0.0541,5.3285 0,5.38265 0.13457,0.13457 3.90243,0.13457 4.03699,0 0.31718,-0.31717 -0.31717,-1.02848 0,-1.34566 0.63436,-0.63435 1.88893,0.4012 2.69133,0 0.35034,-0.17517 1.63939,-2.3976 2.69133,-1.34566 0.63435,0.63435 -0.63436,2.05697 0,2.69132 0.31717,0.31718 1.02848,-0.31717 1.34566,0 0.31718,0.31718 -0.2006,0.94447 0,1.34567 0.28369,0.56738 1.06197,0.77828 1.34566,1.34566 0.2006,0.4012 -0.31717,1.02849 0,1.34566 0.31718,0.31718 0.89711,0 1.34567,0 0.60603,0 3.62745,0.20477 4.03698,0 0.56739,-0.28369 0.77829,-1.06197 1.34567,-1.34566 0.4012,-0.2006 0.89711,0 1.34566,0 0.89711,-0.44855 1.88893,-0.74386 2.69133,-1.34566 1.01496,-0.76123 1.67636,-1.93011 2.69132,-2.69133 1.6048,-1.2036 3.77786,-1.48773 5.38266,-2.69133 1.01496,-0.76122 1.79421,-1.79421 2.69132,-2.69132 0.89711,-0.89711 1.79422,-1.79422 2.69133,-2.69133 0.44855,-0.44855 0.71131,-1.34566 1.34566,-1.34566 0.44856,0 0,0.89711 0,1.34566 0,0.44856 0,0.89711 0,1.34566 0,3.13989 0,6.27977 0,9.41965 0,0.44855 0,0.89711 0,1.34566 0,0.44855 -0.31718,1.02849 0,1.34566 0.63435,0.63435 2.05698,-0.63435 2.69133,0 0.31717,0.31718 -0.31718,1.02849 0,1.34567 0.31717,0.31717 0.89711,0 1.34566,0 2.69133,0 5.38265,0 8.07398,0 0.44855,0 0.94446,0.2006 1.34566,0 0.56738,-0.2837 0.74387,-1.14507 1.34566,-1.34567 0.616,-0.20533 5.97723,0 6.72832,0 0.44855,0 1.02849,0.31718 1.34566,0 0.31718,-0.31717 -0.31717,-1.02848 0,-1.34566 3.58844,0 -0.44855,0.44855 1.34567,-1.34566 0.31717,-0.31718 1.02848,0.31717 1.34566,0 0.31717,-0.31718 0,-0.89711 0,-1.34567 0,-0.32636 0.0433,-3.99371 0,-4.03699 -0.31718,-0.31717 -0.92013,0.14185 -1.34566,0 -0.95153,-0.31717 -1.85679,-0.7893 -2.69133,-1.34566 -1.05563,-0.70375 -1.48773,-2.29013 -2.69133,-2.69133 -0.0998,-0.0333 -7.77852,-0.14772 -8.07397,0 -0.56739,0.2837 -0.99379,0.81786 -1.34567,1.34567 -4.53202,6.79803 -0.0104,0.0312 -1.34566,4.03699 -0.63435,1.90305 -2.2048,3.43655 -2.69133,5.38265 -0.21758,0.87032 0.28369,1.84025 0,2.69133 -0.2006,0.60179 -1.14506,0.74386 -1.34566,1.34566 -0.28369,0.85107 0,1.79422 0,2.69132 0,0.44856 -0.31718,1.02849 0,1.34567 0.31718,0.31717 1.02849,-0.31718 1.34566,0 0.31718,0.31717 -0.31717,1.02849 0,1.34566 0.13457,0.13457 3.90243,0.13457 4.03699,0 0.31718,-0.31717 -0.31717,-1.02849 0,-1.34566 0.70923,-0.70923 1.88893,-0.74387 2.69133,-1.34567 1.01496,-0.76122 1.79422,-1.79421 2.69132,-2.69132 0.89711,-0.89711 1.93011,-1.67636 2.69133,-2.69133 0.6018,-0.8024 0.82963,-1.83126 1.34566,-2.69132 0.83209,-1.38681 1.79422,-2.69133 2.69133,-4.03699 0.89711,-1.34567 1.65596,-2.79456 2.69133,-4.03699 2.43661,-2.92394 5.63736,-5.15005 8.07397,-8.07398 1.03537,-1.24243 1.54774,-2.8934 2.69133,-4.03699 1.14359,-1.14359 2.8934,-1.54773 4.03699,-2.69133 0.70923,-0.70922 0.74386,-1.88892 1.34566,-2.69132 0.89711,-0.89711 1.79422,-1.79422 2.69133,-2.69133 0,-0.44855 -0.2006,-0.94446 0,-1.34566 0.28369,-0.56738 1.06197,-0.77828 1.34566,-1.34566 0.2006,-0.4012 0,-0.89711 0,-1.34567 0,-0.44855 0.31718,-1.02848 0,-1.34566 -0.31717,-0.31718 -0.89711,0 -1.34566,0 -2.50217,0 -4.56053,-0.38857 -6.72832,1.34566 -1.48603,1.18883 -2.69132,2.69133 -4.03699,4.03699 -1.34566,1.34567 -2.69132,2.69133 -4.03699,4.03699 -3.7109,3.71091 -4.23034,3.70254 -6.72831,8.07398 -4.08389,7.14681 -1.52083,3.12925 -4.03699,9.41964 -1.74686,4.36716 -1.34566,0.90711 -1.34566,5.38265 0,0.5128 -0.13062,6.59771 0,6.72832 0.31717,0.31717 1.02848,-0.31718 1.34566,0 0.31718,0.31717 -0.31718,1.02849 0,1.34566 0.31718,0.31718 0.89711,0 1.34566,0 0.44856,0 0.89711,0 1.34567,0 0.44855,0 0.89711,0 1.34566,0 0.44855,0 1.02849,0.31718 1.34566,0 0.31718,-0.31717 -0.31717,-1.02849 0,-1.34566 0.31718,-0.31718 1.02849,0.31717 1.34567,0 0.31717,-0.31718 -0.2006,-0.94447 0,-1.34566 0.28369,-0.56739 0.8971,-0.89711 1.34566,-1.34567 0.44855,-0.44855 0.77828,-1.06197 1.34566,-1.34566 0.4012,-0.2006 0.94447,0.2006 1.34566,0 0.56739,-0.28369 0.77829,-1.06197 1.34567,-1.34566 2.63382,-1.31691 0.68433,2.02999 1.34566,2.69132 0.31718,0.31718 1.02849,0.31718 1.34566,0 0.67284,-0.67283 -0.67283,-3.36416 0,-4.03699 0.31718,-0.31717 1.02849,0.31718 1.34567,0 0.31717,-0.31717 -0.31718,-1.02848 0,-1.34566 0.31717,-0.31718 1.02848,0.31718 1.34566,0 0.31718,-0.31718 -0.31718,-1.02849 0,-1.34566 0.31718,-0.31718 0.94446,0.2006 1.34566,0 0.56738,-0.28369 0.77829,-1.06198 1.34567,-1.34567 0.27619,-0.13809 6.32869,-0.1332 6.72831,0 0.95153,0.31718 1.7398,1.02849 2.69133,1.34567 1.27661,0.42553 2.76038,-0.42554 4.03699,0 0.6018,0.2006 0.77828,1.06197 1.34566,1.34566 0.4012,0.2006 0.89711,0 1.34566,0 0.89711,0 1.84026,0.28369 2.69133,0 0.6018,-0.2006 0.77828,-1.06197 1.34566,-1.34566 0.4012,-0.2006 1.02849,0.31717 1.34567,0 0.63435,-0.63435 -0.63436,-2.05698 0,-2.69133 0.31717,-0.31717 1.02848,0.31718 1.34566,0 0.31717,-0.31717 -0.31718,-1.02849 0,-1.34566 0.31717,-0.31718 1.34566,-0.44856 1.34566,0 0,0.44855 -0.94446,-0.2006 -1.34566,0 -0.56738,0.28369 -0.81785,0.99379 -1.34566,1.34566 -0.83455,0.55636 -1.9821,0.63644 -2.69133,1.34566 -0.70923,0.70923 -0.7893,1.85679 -1.34566,2.69133 -0.35188,0.52781 -0.99379,0.81785 -1.34567,1.34566 -0.55636,0.83455 -0.7893,1.85678 -1.34566,2.69133 -0.35187,0.52781 -1.06197,0.77828 -1.34566,1.34566 -0.2006,0.4012 0.2006,0.94447 0,1.34567 -0.28369,0.56738 -1.06198,0.77828 -1.34567,1.34566 -0.2006,0.4012 0,0.89711 0,1.34566 0,0.44856 0,0.89711 0,1.34566 0,0.44856 0,0.89711 0,1.34567 0,0.44855 -0.31717,1.02849 0,1.34566 0.31718,0.31718 0.89711,0 1.34567,0 0.44855,0 0.89711,0 1.34566,0 2.69133,0 5.38265,0 8.07398,0 0.44855,0 1.02849,0.31718 1.34566,0 1.79422,-1.79422 -2.24277,-1.34566 1.34566,-1.34566 3.15582,0 -0.63435,0.31717 2.69133,-1.34567 1.85615,-0.92807 1.20366,1.62968 2.69133,-1.34566 0.2006,-0.4012 -0.31718,-1.02849 0,-1.34566 0.31717,-0.31718 1.02848,0.31717 1.34566,0 0.31718,-0.31718 -0.31718,-1.02849 0,-1.34566 0.31718,-0.31718 1.02849,0.31717 1.34566,0 0.31718,-0.31718 0,-1.79422 0,-1.34567 0,0.89711 -0.4012,1.88893 0,2.69133 0.2006,0.4012 1.02849,-0.31718 1.34567,0 0.31717,0.31717 -0.31718,1.02849 0,1.34566 0.31717,0.31718 1.02848,0.31718 1.34566,0 0.31717,-0.31717 -0.31718,-1.02849 0,-1.34566 0.31717,-0.31718 0.94446,0.2006 1.34566,0 0.56738,-0.28369 0.81785,-0.99379 1.34567,-1.34566 0.83454,-0.55637 1.85678,-0.7893 2.69132,-1.34567 0.52781,-0.35187 0.77828,-1.06197 1.34566,-1.34566 0.4012,-0.2006 0.94447,0.2006 1.34567,0 1.13476,-0.56738 1.55656,-2.12395 2.69132,-2.69133 0.4012,-0.2006 0.89711,0 1.34567,0 0.44855,0 1.02848,-0.31717 1.34566,0 0.67283,0.67283 -0.67283,3.36416 0,4.03699 0.31718,0.31718 0.89711,0 1.34566,0 0.44856,0 0.89711,0 1.34567,0 0.88424,0 3.27776,0.25308 4.03699,0 4.87841,-1.62614 0.9577,-0.63847 4.03698,-2.69132 0.83455,-0.55637 1.9821,-0.63644 2.69133,-1.34567 0.70923,-0.70922 0.63644,-1.9821 1.34566,-2.69132 0.70923,-0.70923 1.9821,-0.63644 2.69133,-1.34567 0.70923,-0.70922 0.7893,-1.85678 1.34566,-2.69132 0.35188,-0.52781 0.89711,-0.89711 1.34567,-1.34567 1.79421,-1.79421 3.79754,-3.40127 5.38265,-5.38265 1.01031,-1.26289 1.72095,-2.74316 2.69132,-4.03699 0.38062,-0.50748 1.14507,-0.74386 1.34567,-1.34566 0.28369,-0.85107 -0.28369,-1.84025 0,-2.69133 0.2006,-0.60179 1.06197,-0.77828 1.34566,-1.34566 0.20477,-0.40953 0,-3.43096 0,-4.03699 0,-0.44855 0,-1.79422 0,-1.34566 0,4.48554 0,8.97109 0,13.45663 0,1.14199 0.24728,7.33214 0,8.07398 -0.2006,0.6018 -1.14506,0.74386 -1.34566,1.34566 -0.28369,0.85107 0.28369,1.84026 0,2.69133 -0.2006,0.6018 -0.89711,0.89711 -1.34567,1.34566 -0.44855,0.44855 -0.8971,0.89711 -1.34566,1.34566 -0.44855,0.44856 -0.89711,0.89711 -1.34566,1.34567 -0.44856,0.44855 -0.77828,1.06197 -1.34567,1.34566 -0.40119,0.2006 -0.8971,0 -1.34566,0 -0.44855,0 -0.89711,0 -1.34566,0 -1.34566,0 -2.73151,0.32637 -4.03699,0 -0.97305,-0.24326 -1.7398,-1.02849 -2.69133,-1.34566 -4.00581,-1.33527 2.76104,3.18635 -4.03699,-1.34567 -1.85123,-1.23415 -1.38398,-2.07598 -2.69132,-4.03699 -0.35188,-0.52781 -0.99379,-0.81785 -1.34566,-1.34566 -0.55637,-0.83454 -0.7893,-1.85678 -1.34567,-2.69133 -0.35187,-0.52781 -1.14506,-0.74386 -1.34566,-1.34566 -0.28369,-0.85107 0.28369,-1.84025 0,-2.69132 -0.2006,-0.6018 -1.34566,-0.71132 -1.34566,-1.34567 0,-0.44855 0.8971,0 1.34566,0 0.44855,0 0.92013,-0.14184 1.34566,0 0.95153,0.31718 1.76007,0.97316 2.69133,1.34567 1.317,0.5268 2.90222,0.49459 4.03699,1.34566 0.8024,0.6018 0.63643,1.9821 1.34566,2.69132 0.70923,0.70923 1.79422,0.89711 2.69133,1.34567 0.89711,0.44855 1.71827,1.1024 2.69132,1.34566 0.87033,0.21758 1.84026,-0.28369 2.69133,0 0.6018,0.2006 0.89711,0.89711 1.34566,1.34566 0.89711,0.44856 1.71828,1.1024 2.69133,1.34567 0.87032,0.21758 1.821,-0.21758 2.69132,0 0.97306,0.24326 1.70781,1.14896 2.69133,1.34566 1.31953,0.26391 2.71746,-0.26391 4.03699,0 0.98352,0.1967 1.71827,1.1024 2.69133,1.34566 0.87032,0.21758 1.79421,0 2.69132,0 1.79422,0 3.58844,0 5.38265,0 0.44856,0 0.89711,0 1.34567,0 0.44855,0 1.02848,-0.31717 1.34566,0 1.15964,1.15964 -3.94491,5.29058 -4.03699,5.38266 -4.33162,4.33162 1.98002,-2.61437 -1.34566,4.03698 -0.2006,0.4012 -1.02849,-0.31717 -1.34567,0 -0.31717,0.31718 0.31718,1.02849 0,1.34567 -0.8971,0.89711 -2.24277,-0.44856 -1.34566,-1.34567 0.31718,-0.31717 1.14507,0.4012 1.34566,0 0.4012,-0.80239 -0.28369,-1.84025 0,-2.69132 0.2006,-0.6018 1.06198,-0.77828 1.34567,-1.34566 0.2006,-0.4012 -0.2006,-0.94447 0,-1.34567 0.28369,-0.56738 0.99379,-0.81785 1.34566,-1.34566 4.87842,-9.75684 -1.41845,2.12768 2.69133,-4.03699 1.11272,-1.66909 1.48773,-3.77786 2.69132,-5.38265 0.76123,-1.01496 1.79422,-1.79422 2.69133,-2.69133 0.44855,-0.44855 0.71131,-1.34566 1.34566,-1.34566 0.44856,0 0,0.89711 0,1.34566 0,0.44856 0,0.89711 0,1.34566 0,3.15582 -0.31717,-0.63435 1.34567,2.69133 0.365,0.73001 -0.36821,5.01445 0,5.38265 0.31717,0.31718 1.02848,-0.31717 1.34566,0 0.31717,0.31718 -0.31718,1.02849 0,1.34567 0.13456,0.13456 3.90242,0.13456 4.03699,0 0.31717,-0.31718 -0.31718,-1.02849 0,-1.34567 0.31717,-0.31717 1.02848,0.31718 1.34566,0 0.67283,-0.67283 -0.67283,-3.36415 0,-4.03699 0.31718,-0.31717 0.89711,0 1.34566,0 0.44856,0 1.02849,-0.31717 1.34567,0 0.59807,0.59808 -1.04663,2.54181 1.34566,1.34567 5.60033,-2.80017 -1.43856,0.0929 1.34566,-2.69133 0.31718,-0.31717 0.94447,0.2006 1.34567,0 5.60032,-2.80016 -1.43857,0.0929 1.34566,-2.69133 0.31717,-0.31717 1.02849,-0.31717 1.34566,0 0.061,0.061 0,6.09384 0,6.72832 0,0.44855 -0.31717,1.02849 0,1.34566 0.31718,0.31718 0.89711,0 1.34567,0 0.44855,0 0.94446,0.2006 1.34566,0 0.56738,-0.28369 0.77828,-1.06197 1.34566,-1.34566 0.4012,-0.2006 0.94447,0.2006 1.34566,0 0.56739,-0.28369 0.77829,-1.06197 1.34567,-1.34566 0.40953,-0.20477 3.43096,0 4.03699,0 3.13988,0 6.27976,0 9.41964,0 0.32636,0 3.99371,0.0433 4.03699,0 0.31717,-0.31718 -0.2006,-0.94447 0,-1.34567 0.28369,-0.56738 1.06197,-0.77828 1.34566,-1.34566 0.2006,-0.4012 -0.31718,-1.02849 0,-1.34566 0.31718,-0.31718 1.02849,0.31717 1.34566,0 0.31718,-0.31718 0,-0.89711 0,-1.34567 0,-0.44855 0.31718,-1.02848 0,-1.34566 -0.2751,-0.2751 -3.50344,0.26677 -4.03699,0 -0.56738,-0.28369 -0.74386,-1.14506 -1.34566,-1.34566 -0.85107,-0.28369 -1.84025,-0.28369 -2.69132,0 -0.6018,0.2006 -0.89711,0.89711 -1.34567,1.34566 -1.78733,1.78733 -3.39931,2.83193 -4.03699,5.38265 -0.21758,0.87033 0.28369,1.84026 0,2.69133 -0.2006,0.6018 -0.89711,0.89711 -1.34566,1.34566 -0.44855,0.89711 -1.14896,1.70781 -1.34566,2.69133 0,7.65278 0.6018,0.88593 -1.34567,6.72831 -0.42553,1.27661 0.32637,2.73151 0,4.03699 -0.24326,0.97305 -0.89711,1.79422 -1.34566,2.69133 -0.44855,0.89711 -0.89711,1.79422 -1.34566,2.69133 -0.89711,1.79421 -1.79422,3.58843 -2.69133,5.38265 -0.44855,0.89711 -0.74386,1.88893 -1.34566,2.69132 -1.14183,1.52245 -2.69133,2.69133 -4.03699,4.03699 -0.89711,0.89711 -1.79422,1.79422 -2.69133,2.69133 -0.44855,0.44855 -0.77828,1.06197 -1.34566,1.34566 -0.4012,0.2006 -0.94446,-0.2006 -1.34566,0 -0.56738,0.28369 -0.77828,1.06198 -1.34567,1.34567 -0.4012,0.2006 -1.02848,-0.31718 -1.34566,0 -0.31718,0.31717 0.31718,1.02848 0,1.34566 -0.31718,0.31717 -0.89711,0 -1.34566,0 -0.44856,0 -0.89711,0 -1.34567,0 -0.32635,0 -3.99371,0.0433 -4.03698,0 -0.31718,-0.31718 0,-0.89711 0,-1.34566 0,-0.44856 0,-0.89711 0,-1.34567 0,-0.89711 -0.4012,-1.88892 0,-2.69132 0.92482,-1.84966 5.34535,-4.51831 6.72831,-5.38266 8.98552,-5.61595 5.19074,-2.69155 14.80229,-9.41964 1.83735,-1.28614 3.67982,-2.57741 5.38266,-4.03699 7.27663,-6.23711 0.56556,-2.17126 9.41964,-8.07397 2.17622,-1.45082 4.55209,-2.58618 6.72831,-4.03699 3.7322,-2.48814 7.11527,-5.46681 10.76531,-8.07398 1.31604,-0.94003 2.7741,-1.68102 4.03699,-2.69133 0.99069,-0.79255 1.79421,-1.79422 2.69132,-2.69132 0.44856,-0.44856 0.77828,-1.06198 1.34567,-1.34567 0.4012,-0.2006 1.02848,0.31718 1.34566,0 0.31718,-0.31717 -0.31718,-1.02848 0,-1.34566 0.31718,-0.31718 0.94446,0.2006 1.34566,0 0.56738,-0.28369 0.89711,-0.89711 1.34567,-1.34566"
       id="path3271"
       inkscape:connector-curvature="0" />
    <path
       style="fill:none;stroke:#888a85;stroke-width:1px;stroke-linecap:butt;stroke-linejoin:miter;stroke-opacity:1"
       d="m 48.44387,675.57653 c -6.948911,4.43813 -5.465012,4.24288 -8.073978,10.7653 -0.372504,0.93126 -1.028487,1.7398 -1.345663,2.69133 -0.283691,0.85107 0.401199,1.88892 0,2.69132 -0.283691,0.56738 -1.345663,0.71131 -1.345663,1.34566 0,0.89711 2.056974,-0.63435 2.691326,0 0.317176,0.31718 -0.317176,1.02849 0,1.34567 0.134566,0.13456 3.902423,0.13456 4.036989,0 0.317176,-0.31718 -0.317176,-1.02849 0,-1.34567 0.634352,-0.63435 2.056975,0.63436 2.691326,0 0.317176,-0.31717 -0.200599,-0.94446 0,-1.34566 0.283691,-0.56738 1.061973,-0.77828 1.345663,-1.34566 0.2006,-0.4012 -0.200599,-0.94447 0,-1.34566 0.283691,-0.56739 1.061973,-0.77829 1.345663,-1.34567 0.634352,-1.2687 0.711312,-2.76828 1.345663,-4.03699 0.283691,-0.56738 1.546263,-0.74386 1.345664,-1.34566 -0.827094,-2.48128 -4.755522,-4.21345 -4.03699,-6.72831 1.634014,-5.71905 8.20158,-1.9866 10.765305,-1.34567 0.435161,0.10879 0.897109,0 1.345663,0 2.242772,0 4.485543,0 6.728315,0 0.897109,0 1.794218,0 2.691326,0 0.448555,0 1.028488,-0.31717 1.345663,0 0.317176,0.31718 0.2006,0.94447 0,1.34567 -0.28369,0.56738 -1.061972,0.77828 -1.345663,1.34566 -0.200599,0.4012 0.2006,0.94446 0,1.34566 -3.079285,6.15857 0.55774,-5.71021 -2.691326,4.03699 -0.141845,0.42554 0.2006,0.94446 0,1.34566 -0.28369,0.56738 -1.061972,0.77829 -1.345663,1.34567 -0.200599,0.4012 0,0.89711 0,1.34566 0,0.44855 -0.317176,1.02849 0,1.34566 1.056098,1.0561 3.452739,-2.10707 4.036989,-2.69132 0.448555,-0.44856 0.817851,-0.99379 1.345663,-1.34567 2.484301,-1.6562 5.589678,-2.38079 8.073979,-4.03699 3.079286,-2.05285 -0.841431,-1.06518 4.036989,-2.69132 2.710911,-0.90364 0.743483,2.83263 1.345663,4.03699 0.283691,0.56738 1.061972,0.77828 1.345663,1.34566 0.266772,0.53354 -0.275102,3.76189 0,4.03699 0.317176,0.31718 1.028487,-0.31718 1.345663,0 1.794218,1.79422 -2.242772,1.34566 1.345663,1.34566 0.448555,0 0.897109,0 1.345663,0 0.448555,0 0.944464,0.2006 1.345663,0 0.567382,-0.28369 0.897109,-0.89711 1.345663,-1.34566 0.448555,-0.44855 0.897109,-0.89711 1.345663,-1.34566 1.794218,-1.79422 3.588435,-3.58844 5.382653,-5.38266 0.897113,-0.8971 1.635703,-1.98757 2.691333,-2.69132 0.83454,-0.55637 1.73979,-1.02849 2.69132,-1.34566 0.42554,-0.14185 1.02849,0.31717 1.34567,0 0.31717,-0.31718 -0.31718,-1.02849 0,-1.34567 0.31717,-0.31717 1.02848,-0.31717 1.34566,0 0.20883,0.20883 -0.17454,3.51336 0,4.03699 0.31717,0.95153 1.1024,1.71828 1.34566,2.69133 0.1639,0.65559 -0.35577,4.6711 0,5.38265 0.28369,0.56738 1.06197,0.77828 1.34566,1.34566 0.89711,1.79422 -1.34566,1.34567 1.34567,1.34567"
       id="path3273"
       inkscape:connector-curvature="0" />
    <path
       style="fill:none;stroke:#888a85;stroke-width:1px;stroke-linecap:butt;stroke-linejoin:miter;stroke-opacity:1"
       d="m 169.55355,682.30484 c -4.43168,-1.71904 -8.85012,-1.34566 -13.45663,-1.34566 -0.31977,0 -5.08105,-0.1508 -5.38265,0 -0.56739,0.28369 -0.77829,1.06197 -1.34567,1.34566 -0.4012,0.2006 -0.94446,-0.2006 -1.34566,0 -1.13476,0.56738 -1.55656,2.12395 -2.69133,2.69133 -1.85615,0.92807 -1.20365,-1.62968 -2.69132,1.34566 -0.11792,0.23583 -0.003,9.41272 0,9.41964 0.2006,0.4012 0.94446,-0.2006 1.34566,0 0.56738,0.28369 0.77828,1.06197 1.34566,1.34566 0.4012,0.2006 0.94447,-0.2006 1.34567,0 0.56738,0.28369 0.74386,1.14507 1.34566,1.34567 0.53593,0.17864 7.53805,0.17864 8.07398,0 0.6018,-0.2006 0.81785,-0.99379 1.34566,-1.34567 2.4843,-1.6562 5.58968,-2.38078 8.07398,-4.03699 0.52781,-0.35187 0.89711,-0.8971 1.34566,-1.34566 0.89711,-0.89711 2.34279,-1.47144 2.69133,-2.69132 0.61614,-2.15648 -2.24277,-6.72832 0,-6.72832 2.6155,0 2.58617,4.55209 4.03699,6.72832 0.35187,0.52781 1.06197,0.77828 1.34566,1.34566 0.2006,0.4012 -0.31717,1.02849 0,1.34566 0.31718,0.31718 1.02849,-0.31717 1.34566,0 0.31718,0.31718 -0.31717,1.02849 0,1.34566 0.31718,0.31718 0.89711,0 1.34567,0 0.44855,0 0.89711,0 1.34566,0 1.35515,0 7.3298,0.24806 8.07398,0 0.6018,-0.20059 0.77828,-1.06197 1.34566,-1.34566 0.4012,-0.2006 0.89711,0 1.34566,0 0.44856,0 0.89711,0 1.34567,0"
       id="path3275"
       inkscape:connector-curvature="0" />
    <path
       style="fill:none;stroke:#888a85;stroke-width:1px;stroke-linecap:butt;stroke-linejoin:miter;stroke-opacity:1"
       d="m 261.05864,684.99617 c -3.13988,0 -6.27976,0 -9.41964,0 -0.44856,0 -0.94447,-0.2006 -1.34567,0 -1.13476,0.56738 -1.55656,2.12394 -2.69132,2.69132 -0.8024,0.4012 -1.88893,-0.4012 -2.69133,0 -0.56738,0.28369 -0.77828,1.06197 -1.34566,1.34567 -0.4012,0.2006 -0.94447,-0.2006 -1.34567,0 -0.56738,0.28369 -0.77828,1.06197 -1.34566,1.34566 -0.4012,0.2006 -1.02849,-0.31718 -1.34566,0 -0.31718,0.31717 0.31717,1.02849 0,1.34566 -0.31718,0.31718 -1.02849,-0.31717 -1.34566,0 -0.31718,0.31718 0.20059,0.94447 0,1.34566 -0.2837,0.56739 -1.06198,0.77829 -1.34567,1.34567 -0.2006,0.4012 0,0.89711 0,1.34566 0,0.44856 -0.2006,0.94446 0,1.34566 2.80017,5.60033 -0.0929,-1.43856 2.69133,1.34567 0.31717,0.31717 0,0.89711 0,1.34566 0.89711,0 1.821,-0.21758 2.69132,0 0.97306,0.24326 1.71828,1.1024 2.69133,1.34566 0.67121,0.1678 7.34705,0.14539 8.07398,0 2.70228,0.3088 4.3849,-2.10547 6.72831,-2.69132 0.87033,-0.21758 1.82101,0.21758 2.69133,0 0.97305,-0.24327 1.71828,-1.1024 2.69133,-1.34567 0.87032,-0.21758 1.821,0.21758 2.69132,0 0.97305,-0.24326 1.79422,-0.8971 2.69133,-1.34566 0.89711,-0.44855 1.85678,-0.7893 2.69132,-1.34566 1.58344,-1.05563 2.51455,-2.89516 4.03699,-4.03699 0.8024,-0.6018 1.85679,-0.7893 2.69133,-1.34566 1.31969,-0.8798 2.22442,-2.63627 2.69133,-4.03699 0.14184,-0.42554 -0.2006,-0.94447 0,-1.34567 0.28369,-0.56738 1.06197,-0.77828 1.34566,-1.34566 0.2006,-0.4012 0,-0.89711 0,-1.34566 0,-0.44856 0.31718,-1.02849 0,-1.34567 -0.0541,-0.0541 -4.88848,0 -5.38265,0 -0.44856,0 -1.02849,-0.31717 -1.34567,0 -0.31717,0.31718 0,0.89711 0,1.34567 0,0.44855 0,0.89711 0,1.34566 0,1.84641 -0.70644,4.3566 1.34567,5.38265 0.4012,0.2006 1.02848,-0.31717 1.34566,0 0.31718,0.31718 -0.31718,1.02849 0,1.34567 0.31718,0.31717 0.94446,-0.2006 1.34566,0 0.56738,0.28369 0.74387,1.14506 1.34567,1.34566 0.41784,0.13928 9.39074,0.0145 9.41964,0 0.56738,-0.28369 0.77828,-1.06197 1.34566,-1.34566 0.4012,-0.2006 0.94446,0.2006 1.34566,0 0.56739,-0.2837 0.89711,-0.89711 1.34567,-1.34567 0.44855,-0.44855 1.06197,-0.77828 1.34566,-1.34566 0.4012,-0.8024 -0.4012,-1.88893 0,-2.69133 0.89711,-1.79421 2.87712,-0.97407 1.34566,-4.03699 -0.2006,-0.40119 -1.02848,0.31718 -1.34566,0 -0.31718,-0.31717 0.31718,-1.02848 0,-1.34566 -2.07836,-2.07836 -1.38195,4.0007 -1.34566,4.03699 0.63435,0.63435 1.88892,-0.4012 2.69132,0 0.56738,0.28369 0.77828,1.06197 1.34567,1.34566 0.48663,0.24332 5.79235,0 6.72831,0 0.44856,0 1.02849,0.31718 1.34566,0 0.31718,-0.31717 -0.31717,-1.02848 0,-1.34566 0.31718,-0.31718 1.02849,0.31718 1.34567,0 0.31717,-0.31718 -0.44856,-1.34566 0,-1.34566 0.44855,0 0,0.89711 0,1.34566 0,0.49418 -0.0541,5.3285 0,5.38265 0.31717,0.31718 0.89711,0 1.34566,0 0.44856,0 0.89711,0 1.34566,0 3.42897,0 1.79358,-1.56962 4.03699,-2.69132 0.4012,-0.2006 1.02849,0.31717 1.34567,0 0.31717,-0.31718 -0.31718,-1.02849 0,-1.34567 0.63435,-0.63435 2.05697,0.63436 2.69132,0 0.31718,-0.31717 0,-1.79421 0,-1.34566 0,0.89711 0,1.79422 0,2.69133 0,0.44855 -0.31717,1.02848 0,1.34566 0.31718,0.31718 1.02849,-0.31718 1.34567,0 0.31717,0.31718 -0.31718,1.02849 0,1.34566 0.31717,0.31718 0.8971,0 1.34566,0 1.21293,0 5.88135,0.28232 6.72831,0 0.95153,-0.31717 1.79422,-0.89711 2.69133,-1.34566 0.89711,-0.44855 1.88893,-0.74386 2.69133,-1.34566 1.01496,-0.76123 1.67636,-1.93011 2.69132,-2.69133 0.8024,-0.6018 1.7398,-1.02849 2.69133,-1.34566 0.42553,-0.14185 1.02849,0.31717 1.34566,0 0.31718,-0.31718 -0.44855,-1.34567 0,-1.34567 0.44856,0 -0.31717,1.02849 0,1.34567 0.31718,0.31717 0.94447,-0.2006 1.34566,0 1.13477,0.56738 1.55657,2.12394 2.69133,2.69132 0.40953,0.20477 3.43096,0 4.03699,0 1.54302,0 3.98869,0.34849 5.38265,0 0.97305,-0.24326 1.7398,-1.02848 2.69133,-1.34566 0.42553,-0.14184 1.02849,0.31718 1.34566,0 0.70923,-0.70923 0.7893,-1.85678 1.34566,-2.69133 0.35188,-0.52781 0.89711,-0.8971 1.34567,-1.34566 0.44855,-0.44855 1.06197,-0.77828 1.34566,-1.34566 0.2006,-0.4012 -0.44855,-1.34566 0,-1.34566 0.44855,0 0.2006,0.94446 0,1.34566 -0.28369,0.56738 -0.99379,0.81785 -1.34566,1.34566 -4.19268,6.28901 2.63512,-1.61183 -4.03699,6.72832 -0.79255,0.99069 -2.03859,1.60342 -2.69133,2.69132 -0.72979,1.21632 -0.61587,2.82068 -1.34566,4.03699 -0.65274,1.08791 -1.93011,1.67637 -2.69133,2.69133 -0.6018,0.8024 -0.74386,1.88893 -1.34566,2.69132 -1.14183,1.52245 -2.98136,2.45356 -4.03699,4.03699 -1.11273,1.66909 -1.5786,3.71357 -2.69133,5.38266 -0.70375,1.05562 -2.29012,1.48772 -2.69132,2.69132 -0.28369,0.85107 0.63435,2.05698 0,2.69133 -0.63435,0.63435 -1.88893,-0.4012 -2.69133,0 -0.4012,0.2006 0.31718,1.02848 0,1.34566 -0.31717,0.31718 -1.02849,0.31718 -1.34566,0 -0.31718,-0.31718 0.2006,-0.94446 0,-1.34566 -0.28369,-0.56738 -1.06197,-0.77828 -1.34566,-1.34567 -0.2006,-0.40119 0,-0.8971 0,-1.34566 0,-0.89711 0.21758,-1.821 0,-2.69132 -0.24327,-0.97306 -1.34567,-1.68833 -1.34567,-2.69133 0,-2.78564 2.67626,-6.03288 4.03699,-8.07398 0.89711,-1.34566 1.54773,-2.89339 2.69133,-4.03699 0.70922,-0.70922 1.88893,-0.74386 2.69132,-1.34566 1.01497,-0.76122 1.70064,-1.89877 2.69133,-2.69133 1.26289,-1.01031 2.69133,-1.79421 4.03699,-2.69132 1.34566,-0.89711 2.65018,-1.85924 4.03699,-2.69133 0.86006,-0.51604 1.85678,-0.7893 2.69132,-1.34566 0.52782,-0.35188 0.74387,-1.14507 1.34567,-1.34567 0.85107,-0.28369 1.821,0.21759 2.69132,0 0.97306,-0.24326 1.7398,-1.02848 2.69133,-1.34566 0.42554,-0.14184 0.92013,0.14185 1.34566,0 0.95153,-0.31717 1.7398,-1.02849 2.69133,-1.34566 0.42554,-0.14185 1.02849,-0.31718 1.34566,0 0.31718,0.31717 0,0.89711 0,1.34566 0,0.44856 0.2006,0.94447 0,1.34566 -0.28369,0.56739 -1.06197,0.77829 -1.34566,1.34567 -0.2006,0.4012 0.2006,0.94446 0,1.34566 -0.28369,0.56738 -0.89711,0.89711 -1.34566,1.34566 -1.53965,1.53965 -1.59296,1.87665 -4.03699,2.69133 -0.42554,0.14184 -0.94447,-0.2006 -1.34567,0 -0.56738,0.28369 -0.77828,1.06197 -1.34566,1.34566 -0.84578,0.42289 -4.53687,-0.42289 -5.38265,0 -0.56738,0.28369 -0.77828,1.06197 -1.34566,1.34567 -0.4012,0.2006 -0.89711,0 -1.34567,0 -0.44855,0 -1.02848,0.31717 -1.34566,0 -0.31718,-0.31718 0,-0.89711 0,-1.34567 0,-0.44855 -0.31718,-1.02848 0,-1.34566 0.31718,-0.31718 1.02849,0.31718 1.34566,0 0.31718,-0.31718 -0.31717,-1.02849 0,-1.34566 0.63435,-0.63436 1.88893,0.4012 2.69133,0 1.13476,-0.56738 1.48773,-2.29013 2.69132,-2.69133 0.85108,-0.28369 1.84026,0.28369 2.69133,0 0.6018,-0.2006 0.77828,-1.06197 1.34566,-1.34566 0.27604,-0.13802 3.84722,-0.18978 4.03699,0 0.63435,0.63435 -0.63435,2.05697 0,2.69132 0.31718,0.31718 1.02849,-0.31717 1.34567,0 0.63435,0.63436 -0.63436,2.05698 0,2.69133 0.31717,0.31718 0.94446,-0.2006 1.34566,0 1.13476,0.56738 1.55656,2.12394 2.69133,2.69133 0.40119,0.2006 0.8971,0 1.34566,0 0.44855,0 0.89711,0 1.34566,0 0.44856,0 1.02849,0.31717 1.34566,0 0.31718,-0.31718 -0.20059,-0.94447 0,-1.34567 0.66209,-1.32417 4.72057,-4.05848 5.38266,-5.38265 0.4012,-0.8024 -0.89711,-2.69133 0,-2.69133 0.44855,0 0,0.89711 0,1.34567 0,0.49417 -0.0541,5.3285 0,5.38265 0.18977,0.18977 3.76095,0.13802 4.03699,0 0.56738,-0.28369 0.74386,-1.14506 1.34566,-1.34566 0.85107,-0.28369 1.84025,0.28369 2.69133,0 0.60179,-0.2006 0.81785,-0.99379 1.34566,-1.34567 0.83454,-0.55636 1.85678,-0.7893 2.69132,-1.34566 0.68784,-0.45855 2.78215,-3.94617 4.03699,-2.69133 0.31718,0.31718 0,0.89711 0,1.34567 0,1.84641 -0.70644,4.3566 1.34567,5.38265 0.4012,0.2006 0.89711,0 1.34566,0 0.44855,0 0.94446,0.2006 1.34566,0 1.6148,-0.8074 2.4222,-3.22959 4.03699,-4.03699 0.4012,-0.2006 1.02849,0.31718 1.34567,0 0.70922,-0.70923 0.63643,-1.9821 1.34566,-2.69133 1.14359,-1.14359 2.89339,-1.54773 4.03699,-2.69132 1.41845,-1.41846 1.27287,-3.9642 2.69132,-5.38265 0.70923,-0.70923 2.08953,-0.54327 2.69133,-1.34567 0.0426,-0.0567 2.55452,-7.73196 2.69133,-8.07398 0.3725,-0.93126 1.1024,-1.71827 1.34566,-2.69132 0.21758,-0.87033 0,-1.79422 0,-2.69133 0,-1.34566 0,-2.69132 0,-4.03699 0,-0.44855 0.31717,-1.02848 0,-1.34566 -0.31718,-0.31718 -0.89711,0 -1.34566,0 -0.44856,0 -1.02849,-0.31718 -1.34567,0 -0.31717,0.31718 0.31718,1.02849 0,1.34566 -0.31717,0.31718 -0.94446,-0.2006 -1.34566,0 -0.56738,0.28369 -0.89711,0.89711 -1.34566,1.34567 -0.44856,0.44855 -0.99379,0.81785 -1.34567,1.34566 -1.11272,1.66909 -1.5786,3.71356 -2.69132,5.38265 -0.35188,0.52781 -0.99379,0.81785 -1.34567,1.34566 -0.55636,0.83455 -0.82962,1.83127 -1.34566,2.69133 -0.83209,1.38681 -1.96805,2.59045 -2.69132,4.03699 -3.49373,6.98745 1.21977,1.47155 -4.03699,6.72832 -1.53965,1.53964 -1.87665,1.59295 -2.69133,4.03698 -0.14185,0.42554 0.31718,1.02849 0,1.34567 -0.31718,0.31717 -0.94446,-0.2006 -1.34566,0 -0.56738,0.28369 -0.77828,1.06197 -1.34567,1.34566 -0.4012,0.2006 -1.34566,0.44855 -1.34566,0 0,-0.44855 0.89711,0 1.34566,0 0.89711,0 1.79422,0 2.69133,0 3.58843,0 7.17687,0 10.7653,0 0.44856,0 1.02849,0.31718 1.34567,0 0.31717,-0.31718 -0.31718,-1.02849 0,-1.34566 1.79421,-1.79422 1.34566,2.24277 1.34566,-1.34567 0,-0.44855 0,-0.8971 0,-1.34566 0,-0.44855 -0.44855,-1.34566 0,-1.34566 0.0988,0 -0.12345,3.79008 0,4.03699 2.80016,5.60032 -0.0929,-1.43856 2.69133,1.34566 0.31717,0.31718 -0.31718,1.02849 0,1.34566 0.31717,0.31718 1.02848,0.31718 1.34566,0 1.53146,-1.53146 -2.87712,-2.50553 -1.34566,-4.03699 0.63435,-0.63435 2.05697,0.63436 2.69132,0 0.31718,-0.31717 -0.31717,-1.02848 0,-1.34566 0.31718,-0.31717 0.94447,0.2006 1.34567,0 0.56738,-0.28369 0.77828,-1.06197 1.34566,-1.34566 0.48664,-0.24332 5.79235,0 6.72831,0 0.44856,0 1.02849,0.31717 1.34567,0 0.31717,-0.31718 -0.31718,-1.02849 0,-1.34566 0.31717,-0.31718 1.02848,0.31717 1.34566,0 0.31718,-0.31718 -0.31718,-1.02849 0,-1.34567 0.31718,-0.31717 1.02849,0.31718 1.34566,0 0.63435,-0.63435 -0.63435,-2.05697 0,-2.69132 0.31718,-0.31718 1.02849,0.31717 1.34567,0 0.63435,-0.63436 -0.63436,-2.05698 0,-2.69133 0.31717,-0.31718 1.02848,0.31718 1.34566,0 0.31718,-0.31718 -0.31718,-1.02849 0,-1.34566 0.31718,-0.31718 0.94446,0.2006 1.34566,0 1.13477,-0.56738 1.55657,-2.12395 2.69133,-2.69133 0.4012,-0.2006 1.02849,0.31718 1.34566,0 1.79422,-1.79422 -2.24277,-1.34566 1.34566,-1.34566"
       id="path3277"
       inkscape:connector-curvature="0" />
    <path
       style="fill:none;stroke:#888a85;stroke-width:1px;stroke-linecap:butt;stroke-linejoin:miter;stroke-opacity:1"
       d="m 51.135197,715.82748 c -3.72665,1.46769 -3.44191,5.48632 -5.38265,8.07398 -0.76122,1.01496 -2.03858,1.60342 -2.69132,2.69132 -0.72979,1.21632 -0.61588,2.82068 -1.34567,4.03699 -0.65274,1.08791 -1.9301,1.67637 -2.69132,2.69133 -0.6018,0.8024 -0.74387,1.88893 -1.34567,2.69132 -0.76122,1.01497 -2.12394,1.55657 -2.69132,2.69133 -0.4012,0.8024 0,1.79422 0,2.69133 0,0.44855 0.31717,1.02848 0,1.34566 -0.31718,0.31718 -1.02849,-0.31718 -1.34567,0 -0.31717,0.31718 0,0.89711 0,1.34566 0,0.49418 -0.0541,5.3285 0,5.38265 0.31718,0.31718 1.02849,-0.31717 1.34567,0 0.31717,0.31718 -0.31718,1.02849 0,1.34567 0.63435,0.63435 2.05697,-0.63435 2.69132,0 0.31718,0.31717 -0.31717,1.02849 0,1.34566 10e-4,10e-4 4.03089,-0.002 4.03699,0 0.6018,0.2006 0.74387,1.14506 1.34567,1.34566 0.74681,0.24894 9.1521,0 10.7653,0 0.92921,0 4.97352,0.20457 5.38265,0 0.56738,-0.28369 0.74387,-1.14506 1.34567,-1.34566 1.2766,-0.42554 2.76038,0.42554 4.03698,0 1.90306,-0.63435 3.43656,-2.2048 5.38266,-2.69133 0.87032,-0.21758 1.84025,0.2837 2.69132,0 0.6018,-0.20059 0.81785,-0.99378 1.34567,-1.34566 0.83454,-0.55636 1.7398,-1.02849 2.69132,-1.34566 0.42554,-0.14185 1.02849,0.31717 1.34567,0 0.31717,-0.31718 -0.31718,-1.02849 0,-1.34566 0.31717,-0.31718 1.02848,0.31717 1.34566,0 0.31717,-0.31718 -0.31718,-1.02849 0,-1.34567 0.31717,-0.31717 1.02849,0.31718 1.34566,0 0.31718,-0.31717 -0.31717,-1.02848 0,-1.34566 0.31718,-0.31718 1.02849,0.31718 1.34566,0 0.31718,-0.31718 0,-0.89711 0,-1.34566 0,-0.49418 0.0542,-5.3285 0,-5.38266 -0.31717,-0.31717 -1.02848,0.31718 -1.34566,0 -0.31717,-0.31717 0.31718,-1.02848 0,-1.34566 -0.31717,-0.31717 -1.02849,0.31718 -1.34566,0 -0.31718,-0.31717 0.31717,-1.02849 0,-1.34566 -0.0541,-0.0541 -4.88848,0 -5.38265,0 -0.44856,0 -0.89711,0 -1.34567,0 -0.44855,0 -1.02848,-0.31718 -1.34566,0 -0.31718,0.31717 0.31718,1.02849 0,1.34566 -0.31718,0.31718 -0.94446,-0.2006 -1.34566,0 -5.60033,2.80016 1.43856,-0.0929 -1.34567,2.69133 -0.31717,0.31717 -1.02848,-0.31718 -1.34566,0 -0.31717,0.31717 0.31718,1.02848 0,1.34566 -0.31717,0.31718 -1.02849,-0.31718 -1.34566,0 -0.31718,0.31718 0,0.89711 0,1.34566 0,0.44856 0,0.89711 0,1.34567 0,0.60603 -0.20477,3.62745 0,4.03699 0.28369,0.56738 1.06197,0.77828 1.34566,1.34566 0.2006,0.4012 -0.2006,0.94446 0,1.34566 0.56738,1.13476 2.12395,1.55657 2.69133,2.69133 0.2006,0.4012 -0.31718,1.02849 0,1.34566 0.63435,0.63435 1.88892,-0.4012 2.69132,0 0.56738,0.28369 0.74387,1.14506 1.34567,1.34566 0.61599,0.20534 5.97722,0 6.72831,0 1.34566,0 2.69133,0 4.03699,0 0.89711,0 1.84026,0.28369 2.69133,0 0.6018,-0.2006 0.74386,-1.14506 1.34566,-1.34566 0.85107,-0.28369 1.84026,0.28369 2.69133,0 1.2036,-0.4012 1.55656,-2.12394 2.69133,-2.69133 0.4012,-0.20059 0.94446,0.2006 1.34566,0 0.56738,-0.28369 0.77828,-1.06197 1.34566,-1.34566 0.4012,-0.2006 1.02849,0.31718 1.34567,0 0.31717,-0.31717 -0.31718,-1.02849 0,-1.34566 0.31717,-0.31718 1.02848,0.31717 1.34566,0 0.634353,-0.63435 -0.4012,-1.88893 0,-2.69133 0.17517,-0.35034 2.397603,-1.63938 1.345663,-2.69132 -0.70923,-0.70923 -1.856783,-0.7893 -2.691323,-1.34567 -1.05563,-0.70375 -1.55657,-2.12394 -2.69133,-2.69132 -0.4012,-0.2006 -1.02849,0.31717 -1.34566,0 -0.31718,-0.31718 0.31717,-1.02849 0,-1.34567 -0.63436,-0.63435 -2.05698,0.63436 -2.69133,0 -0.31718,-0.31717 0.31718,-1.02848 0,-1.34566 -0.31718,-0.31717 -1.34567,0.44856 -1.34567,0 0,-0.44855 0.89712,0 1.34567,0 0.44855,0 0.89711,0 1.34566,0 3.73168,0 -2.14806,-0.2006 4.03699,1.34566 0.87033,0.21759 1.821,-0.21758 2.69133,0 0.973053,0.24327 1.718273,1.1024 2.691323,1.34567 0.91067,0.22766 8.5537,0 9.41965,0 0.8971,0 1.821,-0.21758 2.69132,0 6.18505,1.54626 0.30531,1.34566 4.03699,1.34566 0.44856,0 1.79422,0 1.34566,0 -2.69132,0 -5.38265,0 -8.07397,0 -0.89711,0 -1.82101,-0.21758 -2.69133,0 -0.97305,0.24326 -1.7398,1.02849 -2.69133,1.34566 -0.42553,0.14185 -1.02848,-0.31717 -1.34566,0 -0.31718,0.31718 0.31718,1.02849 0,1.34567 -0.31718,0.31717 -1.02849,-0.31718 -1.34566,0 -0.31718,0.31717 0,0.89711 0,1.34566 0,0.44855 -0.31718,1.02849 0,1.34566 0.31717,0.31718 1.02848,-0.31717 1.34566,0 0.31718,0.31718 -0.31718,1.02849 0,1.34567 0.31718,0.31717 0.89711,0 1.34566,0 0.44856,0 1.02849,0.31717 1.34567,0 0.31717,-0.31718 -0.31718,-1.02849 0,-1.34567 0.31717,-0.31717 1.02848,0.31718 1.34566,0 0.31718,-0.31717 -0.31718,-1.02848 0,-1.34566 0.31718,-0.31718 1.02849,0.31718 1.34566,0 0.31718,-0.31718 0,-0.89711 0,-1.34566 0,-1.79422 0,-3.58844 0,-5.38266 0,-0.44855 -0.44855,-1.34566 0,-1.34566 0.44856,0 0,0.89711 0,1.34566 0,0.89711 0,1.79422 0,2.69133 0,3.58844 -0.44855,-0.44855 1.34567,1.34566 2.78422,2.78423 -4.25467,-0.10883 1.34566,2.69133 0.8024,0.4012 1.88893,-0.4012 2.69132,0 0.56739,0.28369 0.77829,1.06197 1.34567,1.34566 0.0704,0.0352 3.96659,0.0352 4.03699,0 0.56738,-0.28369 0.81785,-0.99379 1.34566,-1.34566 0.83455,-0.55636 1.9821,-0.63644 2.69133,-1.34566 0.70922,-0.70923 0.7893,-1.85678 1.34566,-2.69133 0.35187,-0.52781 0.89711,-0.89711 1.34565,-1.34566 1.79422,-1.79422 3.79755,-3.40127 5.38265,-5.38265 1.01032,-1.26289 1.68102,-2.77411 2.69133,-4.03699 0.79255,-0.9907 1.98758,-1.63571 2.69133,-2.69133 1.66909,-2.50363 2.3679,-5.57034 4.03699,-8.07398 0.35187,-0.52781 0.8971,-0.89711 1.34566,-1.34566 0.44855,-0.44856 1.06197,-0.77828 1.34566,-1.34566 0.2006,-0.4012 -0.31717,-1.02849 0,-1.34567 0.31718,-0.31717 1.02849,0.31718 1.34567,0 0.31717,-0.31717 0.44855,-1.34566 0,-1.34566 -2.23151,0 -0.94356,1.88712 -1.34567,2.69133 -0.72327,1.44654 -1.65596,2.79455 -2.69132,4.03698 -1.21831,1.46197 -2.7985,2.59209 -4.03699,4.03699 -2.34701,2.73818 -6.68403,8.98359 -8.07398,12.11097 -0.75113,1.69004 -0.61714,3.68275 -1.34566,5.38265 -0.63708,1.48652 -2.09068,2.53538 -2.69132,4.03699 -0.49977,1.24942 0,2.69133 0,4.03699 0,0.44856 -0.31718,1.02849 0,1.34566 0.31718,0.31718 0.89711,0 1.34565,0 0.44856,0 1.02849,0.31718 1.34567,0 0.31717,-0.31717 -0.2006,-0.94446 0,-1.34566 0.28369,-0.56738 0.8971,-0.89711 1.34566,-1.34566 1.79422,-1.79422 3.58843,-3.58844 5.38265,-5.38265 0.89711,-0.89711 1.98758,-1.6357 2.69133,-2.69133 0.24881,-0.37322 -0.31718,-1.02849 0,-1.34566 0.31717,-0.31718 0.89711,0 1.34566,0 0.44855,0 1.02849,-0.31718 1.34566,0 0.31718,0.31717 -0.31717,1.02848 0,1.34566 0.63435,0.63435 2.69133,-0.89711 2.69133,0 0,0.4339 -2.31748,1.94363 -2.69133,2.69133 -0.2006,0.4012 0.2006,0.94446 0,1.34566 -0.28369,0.56738 -1.06197,0.77828 -1.34566,1.34566 -0.2006,0.4012 0,0.89711 0,1.34567 0,0.95675 -0.56524,4.03698 1.34566,4.03698 0.44856,0 0,-0.8971 0,-1.34566 0,-0.32636 0.0433,-3.99371 0,-4.03699 -0.31717,-0.31717 -1.02848,0.31718 -1.34566,0 -0.31718,-0.31717 -0.31718,-1.02848 0,-1.34566 0.31718,-0.31718 0.89711,0 1.34566,0 0.44856,0 0.89711,0 1.34567,0 3.58843,0 7.17687,0 10.7653,0 3.13988,0 6.27976,0 9.41964,0 0.89711,0 1.84026,0.28369 2.69133,0 0.6018,-0.2006 0.77828,-1.06197 1.34566,-1.34566 0.4012,-0.2006 0.89711,0 1.34566,0 1.34567,0 2.73151,-0.32637 4.03699,0 0.97305,0.24326 1.79422,0.89711 2.69133,1.34566 0.89711,0.44855 1.85678,0.7893 2.69133,1.34566 0.52781,0.35188 0.81785,0.99379 1.34566,1.34567 1.92377,1.28251 5.58833,1.75702 6.72831,4.03698 0.2006,0.4012 -0.2006,0.94447 0,1.34567 0.28369,0.56738 1.06198,0.77828 1.34567,1.34566 0.2006,0.4012 0,0.89711 0,1.34566 0,0.44856 0.31717,1.02849 0,1.34567 -0.27511,0.2751 -3.50345,-0.26678 -4.03699,0 -0.56738,0.28369 -0.77828,1.06197 -1.34567,1.34566 -0.40119,0.2006 -0.8971,0 -1.34566,0 -0.89711,0 -1.79422,0 -2.69132,0 -0.44856,0 -0.92013,0.14185 -1.34567,0 -0.95152,-0.31718 -1.7398,-1.02849 -2.69132,-1.34566 -0.85108,-0.28369 -1.88893,0.4012 -2.69133,0 -6.15857,-3.07929 5.71021,0.55774 -4.03699,-2.69133 -0.75922,-0.25307 -3.15274,0 -4.03699,0"
       id="path3267-0"
       inkscape:connector-curvature="0" />
    <path
       style="fill:none;stroke:#888a85;stroke-width:1px;stroke-linecap:butt;stroke-linejoin:miter;stroke-opacity:1"
       d="m 246.25634,719.86447 c -3.71621,1.91823 -4.45977,7.74058 -6.72831,10.7653 -0.76123,1.01496 -1.89878,1.70064 -2.69133,2.69133 -1.01031,1.26289 -1.65596,2.79455 -2.69133,4.03699 -0.15132,0.18159 -8.01275,7.98215 -8.07397,8.07398 -0.78682,1.18022 -0.71132,2.76828 -1.34567,4.03698 -0.72327,1.44655 -1.85924,2.65018 -2.69132,4.03699 -0.51604,0.86007 -0.7893,1.85679 -1.34567,2.69133 -0.35187,0.52781 -1.06197,0.77828 -1.34566,1.34566 -0.2006,0.4012 0,0.89711 0,1.34567 0,0.44855 -0.31718,1.02848 0,1.34566 0.31718,0.31718 0.89711,0 1.34566,0 0.44856,0 0.89711,0 1.34567,0 0.49417,0 5.3285,0.0541 5.38265,0 0.31717,-0.31718 -0.31718,-1.02849 0,-1.34566 0.31717,-0.31718 0.92013,0.14184 1.34566,0 0.95153,-0.31718 1.76007,-0.97316 2.69133,-1.34567 1.317,-0.5268 2.82067,-0.61587 4.03699,-1.34566 3.40055,-3.40055 1.55656,-2.12394 5.38265,-4.03699 1.70749,-0.85375 5.83121,-2.24279 6.72832,-4.03699 0.20059,-0.4012 -0.31718,-1.02849 0,-1.34566 0.31717,-0.31718 1.34566,-0.44856 1.34566,0 0,0.89711 -2.05698,-0.63435 -2.69133,0 -0.31717,0.31717 0.31718,1.02849 0,1.34566 -0.31717,0.31718 -1.02849,-0.31717 -1.34566,0 -0.31718,0.31718 0.2006,0.94447 0,1.34566 -0.28369,0.56739 -1.06197,0.77829 -1.34566,1.34567 -0.4012,0.8024 0.8971,2.69132 0,2.69132 -0.44856,0 -0.31718,-1.02848 0,-1.34566 0.31717,-0.31717 0.94446,0.2006 1.34566,0 0.56738,-0.28369 0.81785,-0.99379 1.34566,-1.34566 0.83455,-0.55637 1.9821,-0.63644 2.69133,-1.34567 0.31717,-0.31717 -0.31718,-1.02848 0,-1.34566 0.31717,-0.31717 0.94446,0.2006 1.34566,0 5.60033,-2.80016 -1.43856,0.0929 1.34566,-2.69132 0.31718,-0.31718 0.94447,0.2006 1.34567,0 2.97533,-1.48767 0.41759,-0.83518 1.34566,-2.69133 0.56738,-1.13476 2.29013,-1.48773 2.69133,-2.69133 0.0333,-0.0998 0.14772,-7.77852 0,-8.07397 -0.28369,-0.56739 -1.06198,-0.77829 -1.34567,-1.34567 -0.2006,-0.4012 0.31718,-1.02849 0,-1.34566 -0.31717,-0.31718 -1.02848,0.31717 -1.34566,0 -0.31718,-0.31718 0.31718,-1.02849 0,-1.34566 -0.31718,-0.31718 -1.34566,0.44855 -1.34566,0 0,-0.44856 0.89711,0 1.34566,0 0.44855,0 0.89711,0 1.34566,0 1.60889,0 7.19572,0.29275 8.07398,0 0.95153,-0.31718 1.85678,-0.7893 2.69133,-1.34567 0.52781,-0.35187 0.81785,-0.99379 1.34566,-1.34566 9.75684,-4.87842 -2.12768,1.41845 4.03699,-2.69133 0.83455,-0.55636 1.85678,-0.7893 2.69133,-1.34566 1.31969,-0.8798 2.22442,-2.63627 2.69132,-4.03699 0.14185,-0.42553 0,-0.89711 0,-1.34566 0.44856,-0.44856 1.06197,-0.77828 1.34567,-1.34566 0.2006,-0.4012 0.31717,-1.02849 0,-1.34567 -0.31718,-0.31717 -1.02849,-0.31717 -1.34567,0 -0.31717,0.31718 0.24882,0.97245 0,1.34567 -1.4075,2.11125 -3.79754,3.40127 -5.38265,5.38265 -3.96792,4.9599 -1.52138,2.53564 -4.03699,6.72831 -4.87153,8.11923 -0.96099,0.57632 -4.03699,6.72832 -0.44855,0.89711 -1.1024,1.71827 -1.34566,2.69132 -0.0393,0.15704 -0.0436,6.59744 0,6.72832 0.69801,2.09402 3.78005,1.34566 5.38265,1.34566 0.44856,0 1.14506,0.4012 1.34566,0 0.6018,-1.2036 0,-2.69132 0,-4.03699 0,-0.44855 0.44856,-1.34566 0,-1.34566 -0.63435,0 -0.8971,0.89711 -1.34566,1.34566 -0.44855,0.44856 -0.99379,0.81785 -1.34566,1.34567 -0.55637,0.83454 -0.74387,1.88892 -1.34567,2.69132 -0.76122,1.01497 -2.12394,1.55657 -2.69132,2.69133 -0.4012,0.8024 0,1.79422 0,2.69132 -0.44856,0.89711 -0.7893,1.85679 -1.34566,2.69133 -0.35188,0.52781 -1.34567,0.71131 -1.34567,1.34566 0,0.44856 0.89711,0 1.34567,0 3.15582,0 -0.63436,0.31718 2.69132,-1.34566 0.4012,-0.2006 0.94447,0.2006 1.34566,0 0.56739,-0.28369 0.77829,-1.06197 1.34567,-1.34566 1.2687,-0.63435 2.71999,-0.81886 4.03699,-1.34567 6.09802,-2.43921 0.18635,-0.12423 4.03699,-2.69132 0.83454,-0.55636 1.85678,-0.7893 2.69132,-1.34566 0.52781,-0.35188 0.77828,-1.06198 1.34567,-1.34567 0.80421,-0.4021 2.69132,0.88584 2.69132,-1.34566 0,-0.44855 -1.02849,-0.31718 -1.34566,0 -0.31718,0.31718 0.14184,0.92013 0,1.34566 -0.31718,0.95153 -1.02849,1.7398 -1.34566,2.69133 -0.2837,0.85107 0,1.79422 0,2.69132 0,1.34567 -0.6018,2.8334 0,4.03699 0.2006,0.4012 0.94446,-0.2006 1.34566,0 0.56738,0.28369 0.77828,1.06198 1.34566,1.34567 0.40953,0.20476 3.43096,0 4.03699,0 0.70368,0 5.02882,0.17691 5.38265,0 0.56738,-0.28369 0.77828,-1.06198 1.34567,-1.34567 0.4012,-0.2006 0.94446,0.2006 1.34566,0 0.56738,-0.28369 0.89711,-0.8971 1.34566,-1.34566 0.44856,-0.44855 1.06197,-0.77828 1.34567,-1.34566 0.20059,-0.4012 -0.31718,-1.02849 0,-1.34567 0.31717,-0.31717 1.02848,0.31718 1.34566,0 0.13456,-0.13456 0.13456,-3.90242 0,-4.03698 -0.31718,-0.31718 -0.89711,0 -1.34566,0 -0.44856,0 -0.94447,-0.2006 -1.34567,0 -0.56738,0.28369 -0.89711,0.8971 -1.34566,1.34566 -0.44856,0.44855 -0.89711,0.89711 -1.34566,1.34566 -2.0835,2.0835 -4.03699,3.45943 -4.03699,6.72832 0,0.44855 -0.2006,0.94446 0,1.34566 0.28369,0.56738 0.89711,0.89711 1.34566,1.34566 0.89711,0.89711 1.79422,1.79422 2.69133,2.69133 0.44855,0.44855 0.81785,0.99379 1.34566,1.34566 0.83454,0.55637 1.79422,0.89711 2.69133,1.34567 0.8971,0.44855 1.85678,0.7893 2.69132,1.34566 0.52781,0.35187 0.74387,1.14506 1.34566,1.34566 0.85108,0.28369 1.79422,0 2.69133,0 0.89711,0 1.79422,0 2.69133,0 2.24277,0 4.52909,0.43985 6.72831,0 0.98352,-0.1967 1.76007,-0.97316 2.69133,-1.34566 1.317,-0.5268 2.76828,-0.71131 4.03699,-1.34566 3.39507,-1.69754 4.22505,-2.8794 6.72831,-5.38266"
       id="path3269-9"
       inkscape:connector-curvature="0" />
    <path
       style="fill:none;stroke:#888a85;stroke-width:1px;stroke-linecap:butt;stroke-linejoin:miter;stroke-opacity:1"
       d="m 53.826527,783.11063 c -1.79422,1.34566 -4.03699,5.83121 -5.38265,4.03699 -1.34566,-1.79422 5.38265,-6.27976 5.38265,-4.03699 0,2.87215 -3.78947,4.33854 -5.38265,6.72832 -0.24881,0.37322 0.2006,0.94446 0,1.34566 -0.28369,0.56738 -0.99379,0.81785 -1.34566,1.34566 -1.78044,2.67066 -3.04271,6.43678 -4.03699,9.41964 -0.44856,1.34567 -0.89711,2.69133 -1.34567,4.03699 -0.44855,1.34567 -0.71131,2.76829 -1.34566,4.03699 -0.72327,1.44655 -1.96805,2.59045 -2.69133,4.03699 -0.63435,1.26871 -0.8971,2.69133 -1.34566,4.03699 -1.66284,4.98852 -0.71131,2.76829 -2.69133,6.72832 -0.44855,0.89711 -0.7893,1.85678 -1.345659,2.69132 -0.368318,0.55248 -4.036989,3.76157 -4.036989,4.03699 0,0.44856 0.897108,0 1.345663,0 0.897109,0 1.811639,0.17594 2.691326,0 1.390909,-0.27818 2.719989,-0.81886 4.036989,-1.34566 0.93126,-0.37251 1.70781,-1.14896 2.69133,-1.34566 1.31953,-0.26391 2.71745,0.2639 4.03699,0 0.98352,-0.19671 1.76006,-0.97316 2.69132,-1.34567 1.317,-0.5268 2.71999,-0.81886 4.03699,-1.34566 0.93126,-0.3725 1.71828,-1.1024 2.69133,-1.34566 0.87032,-0.21758 1.84025,0.28369 2.69132,0 0.6018,-0.2006 0.71131,-1.34567 1.34567,-1.34567 0.44855,0 0,0.89711 0,1.34567 0,0.44855 0.31717,1.02848 0,1.34566 -0.31718,0.31718 -1.02849,-0.31718 -1.34567,0 -0.63435,0.63435 0.63436,2.05697 0,2.69133 -0.31717,0.31717 -1.02848,-0.31718 -1.34566,0 -0.31718,0.31717 0,0.8971 0,1.34566 0,0.44855 -0.31718,1.02849 0,1.34566 0.1146,0.1146 3.36906,0.22265 4.03699,0 0.95153,-0.31717 1.83126,-0.82962 2.69133,-1.34566 1.38681,-0.83209 2.65017,-1.85924 4.03698,-2.69133 0.86007,-0.51604 1.83127,-0.82962 2.69133,-1.34566 2.70432,-1.62259 6.29841,-4.34224 9.41964,-5.38265 0.42554,-0.14185 0.89711,0 1.34567,0 0.44855,0 1.02848,-0.31718 1.34566,0 0.43626,0.43626 -0.42705,5.87422 0,6.72831 0.28369,0.56738 1.06197,0.77828 1.34566,1.34567 0.2006,0.40119 -0.31717,1.02848 0,1.34566 0.31718,0.31717 0.89711,0 1.34566,0 1.08331,0 4.53805,0.28154 5.38266,0 9.7472,-3.24907 -2.12159,0.38796 4.03699,-2.69133 1.43537,-0.71768 1.79873,1.33214 2.69133,-1.34566 0.42553,-1.27661 0,-2.69133 0,-4.03699 0,-0.44855 0,-0.89711 0,-1.34566 0,-0.44856 0.31717,-1.02849 0,-1.34567 -0.31718,-0.31717 -0.89711,0 -1.34567,0 -0.44855,0 -0.89711,0 -1.34566,0 -0.32636,0 -3.99372,-0.0433 -4.03699,0 -0.31718,0.31718 0.2006,0.94447 0,1.34567 -0.56738,1.13476 -2.12395,1.55656 -2.69133,2.69132 -0.13802,0.27604 -0.18977,3.84722 0,4.03699 0.31718,0.31718 1.02849,-0.31717 1.34566,0 0.31718,0.31718 -0.31717,1.02849 0,1.34567 0.31718,0.31717 0.89711,0 1.34567,0 0.44855,0 0.89711,0 1.34566,0 1.64262,0 3.10307,0.52217 4.03699,-1.34567 0.4012,-0.8024 -0.63435,-2.05697 0,-2.69132 0.31718,-0.31718 1.02849,0.31717 1.34567,0 0.31717,-0.31718 -0.31718,-1.02849 0,-1.34567 0.31717,-0.31717 1.02848,-0.31717 1.34566,0 0.31717,0.31718 -0.31718,1.02849 0,1.34567 0.63435,0.63435 2.05697,-0.63436 2.69133,0 0.31717,0.31717 -0.31718,1.02848 0,1.34566 0.31717,0.31718 0.8971,0 1.34566,0 0.884243,0 3.277773,0.25307 4.036993,0 9.7472,-3.24907 -2.12158,0.38796 4.03699,-2.69133 0.4012,-0.2006 0.94446,0.2006 1.34566,0 0.54353,-0.27176 5.34232,-5.34231 5.38265,-5.38265 0.44856,-0.44855 0.71131,-1.34566 1.34566,-1.34566 0.44856,0 0,0.89711 0,1.34566 0,0.49418 -0.0541,5.3285 0,5.38265 0.13457,0.13457 3.90243,0.13457 4.03699,0 0.31718,-0.31717 -0.31717,-1.02848 0,-1.34566 0.63436,-0.63435 1.88893,0.4012 2.69133,0 0.35034,-0.17517 1.63939,-2.3976 2.69133,-1.34566 0.63435,0.63435 -0.63436,2.05697 0,2.69132 0.31717,0.31718 1.02848,-0.31717 1.34566,0 0.31718,0.31718 -0.2006,0.94447 0,1.34567 0.28369,0.56738 1.06197,0.77828 1.34565,1.34566 0.2006,0.4012 -0.31716,1.02849 0,1.34566 0.31718,0.31718 0.89711,0 1.34567,0 0.60603,0 3.62745,0.20477 4.03698,0 0.56739,-0.28369 0.77829,-1.06197 1.34567,-1.34566 0.4012,-0.2006 0.89711,0 1.34566,0 0.89711,-0.44855 1.88893,-0.74386 2.69133,-1.34566 1.01496,-0.76123 1.67636,-1.93011 2.69132,-2.69133 1.6048,-1.2036 3.77786,-1.48773 5.38266,-2.69133 1.01496,-0.76122 1.79421,-1.79421 2.69132,-2.69132 0.89711,-0.89711 1.79422,-1.79422 2.69133,-2.69133 0.44855,-0.44855 0.71131,-1.34566 1.34566,-1.34566 0.44856,0 0,0.89711 0,1.34566 0,0.44856 0,0.89711 0,1.34566 0,3.13989 0,6.27977 0,9.41965 0,0.44855 0,0.89711 0,1.34566 0,0.44855 -0.31718,1.02849 0,1.34566 0.63435,0.63435 2.05698,-0.63435 2.69133,0 0.31717,0.31718 -0.31718,1.02849 0,1.34567 0.31717,0.31717 0.89711,0 1.34566,0 2.69133,0 5.38265,0 8.07398,0 0.44855,0 0.94446,0.2006 1.34566,0 0.56738,-0.2837 0.74387,-1.14507 1.34566,-1.34567 0.616,-0.20533 5.97723,0 6.72832,0 0.44855,0 1.02849,0.31718 1.34566,0 0.31718,-0.31717 -0.31717,-1.02848 0,-1.34566 3.58844,0 -0.44855,0.44855 1.34567,-1.34566 0.31717,-0.31718 1.02848,0.31717 1.34566,0 0.31717,-0.31718 0,-0.89711 0,-1.34567 0,-0.32636 0.0433,-3.99371 0,-4.03699 -0.31718,-0.31717 -0.92013,0.14185 -1.34566,0 -0.95153,-0.31717 -1.85679,-0.7893 -2.69133,-1.34566 -1.05563,-0.70375 -1.48773,-2.29013 -2.69133,-2.69133 -0.0998,-0.0333 -7.77852,-0.14772 -8.07397,0 -0.56739,0.2837 -0.99379,0.81786 -1.34567,1.34567 -4.53202,6.79803 -0.0104,0.0312 -1.34566,4.03699 -0.63435,1.90305 -2.2048,3.43655 -2.69133,5.38265 -0.21758,0.87032 0.28369,1.84025 0,2.69133 -0.2006,0.60179 -1.14506,0.74386 -1.34566,1.34566 -0.28369,0.85107 0,1.79422 0,2.69132 0,0.44856 -0.31718,1.02849 0,1.34567 0.31718,0.31717 1.02849,-0.31718 1.34566,0 0.31718,0.31717 -0.31717,1.02849 0,1.34566 0.13457,0.13457 3.90243,0.13457 4.03699,0 0.31718,-0.31717 -0.31717,-1.02849 0,-1.34566 0.70923,-0.70923 1.88893,-0.74387 2.69133,-1.34567 1.01496,-0.76122 1.79422,-1.79421 2.69132,-2.69132 0.89711,-0.89711 1.93011,-1.67636 2.69133,-2.69133 0.6018,-0.8024 0.82963,-1.83126 1.34566,-2.69132 0.83209,-1.38681 1.79422,-2.69133 2.69133,-4.03699 0.89711,-1.34567 1.65596,-2.79456 2.69133,-4.03699 2.43661,-2.92394 5.63736,-5.15005 8.07397,-8.07398 1.03537,-1.24243 1.54774,-2.8934 2.69133,-4.03699 1.14359,-1.14359 2.8934,-1.54773 4.03699,-2.69133 0.70923,-0.70922 0.74386,-1.88892 1.34566,-2.69132 0.89711,-0.89711 1.79422,-1.79422 2.69133,-2.69133 0,-0.44855 -0.2006,-0.94446 0,-1.34566 0.28369,-0.56738 1.06197,-0.77828 1.34566,-1.34566 0.2006,-0.4012 0,-0.89711 0,-1.34567 0,-0.44855 0.31718,-1.02848 0,-1.34566 -0.31717,-0.31718 -0.89711,0 -1.34566,0 -2.50217,0 -4.56053,-0.38857 -6.72832,1.34566 -1.48603,1.18883 -2.69132,2.69133 -4.03699,4.03699 -1.34566,1.34567 -2.69132,2.69133 -4.03699,4.03699 -3.7109,3.71091 -4.23034,3.70254 -6.72831,8.07398 -4.08389,7.14681 -1.52083,3.12925 -4.03699,9.41964 -1.74686,4.36716 -1.34566,0.90711 -1.34566,5.38265 0,0.5128 -0.13062,6.59771 0,6.72832 0.31717,0.31717 1.02848,-0.31718 1.34566,0 0.31718,0.31717 -0.31718,1.02849 0,1.34566 0.31718,0.31718 0.89711,0 1.34566,0 0.44856,0 0.89711,0 1.34567,0 0.44855,0 0.89711,0 1.34566,0 0.44855,0 1.02849,0.31718 1.34566,0 0.31718,-0.31717 -0.31717,-1.02849 0,-1.34566 0.31718,-0.31718 1.02849,0.31717 1.34567,0 0.31717,-0.31718 -0.2006,-0.94447 0,-1.34566 0.28369,-0.56739 0.8971,-0.89711 1.34566,-1.34567 0.44855,-0.44855 0.77828,-1.06197 1.34566,-1.34566 0.4012,-0.2006 0.94447,0.2006 1.34566,0 0.56739,-0.28369 0.77829,-1.06197 1.34567,-1.34566 2.63382,-1.31691 0.68433,2.02999 1.34566,2.69132 0.31718,0.31718 1.02849,0.31718 1.34566,0 0.67284,-0.67283 -0.67283,-3.36416 0,-4.03699 0.31718,-0.31717 1.02849,0.31718 1.34567,0 0.31717,-0.31717 -0.31718,-1.02848 0,-1.34566 0.31717,-0.31718 1.02848,0.31718 1.34566,0 0.31718,-0.31718 -0.31718,-1.02849 0,-1.34566 0.31718,-0.31718 0.94446,0.2006 1.34566,0 0.56738,-0.28369 0.77829,-1.06198 1.34567,-1.34567 0.27619,-0.13809 6.32869,-0.1332 6.72831,0 0.95153,0.31718 1.7398,1.02849 2.69133,1.34567 1.27661,0.42553 2.76038,-0.42554 4.03699,0 0.6018,0.2006 0.77828,1.06197 1.34566,1.34566 0.4012,0.2006 0.89711,0 1.34566,0 0.89711,0 1.84026,0.28369 2.69133,0 0.6018,-0.2006 0.77828,-1.06197 1.34566,-1.34566 0.4012,-0.2006 1.02849,0.31717 1.34567,0 0.63435,-0.63435 -0.63436,-2.05698 0,-2.69133 0.31717,-0.31717 1.02848,0.31718 1.34566,0 0.31717,-0.31717 -0.31718,-1.02849 0,-1.34566 0.31717,-0.31718 1.34566,-0.44856 1.34566,0 0,0.44855 -0.94446,-0.2006 -1.34566,0 -0.56738,0.28369 -0.81785,0.99379 -1.34566,1.34566 -0.83455,0.55636 -1.9821,0.63644 -2.69133,1.34566 -0.70923,0.70923 -0.7893,1.85679 -1.34566,2.69133 -0.35188,0.52781 -0.99379,0.81785 -1.34567,1.34566 -0.55636,0.83455 -0.7893,1.85678 -1.34566,2.69133 -0.35187,0.52781 -1.06197,0.77828 -1.34566,1.34566 -0.2006,0.4012 0.2006,0.94447 0,1.34567 -0.28369,0.56738 -1.06198,0.77828 -1.34567,1.34566 -0.2006,0.4012 0,0.89711 0,1.34566 0,0.44856 0,0.89711 0,1.34566 0,0.44856 0,0.89711 0,1.34567 0,0.44855 -0.31717,1.02849 0,1.34566 0.31718,0.31718 0.89711,0 1.34567,0 0.44855,0 0.89711,0 1.34566,0 2.69133,0 5.38265,0 8.07398,0 0.44855,0 1.02849,0.31718 1.34566,0 1.79422,-1.79422 -2.24277,-1.34566 1.34566,-1.34566 3.15582,0 -0.63435,0.31717 2.69133,-1.34567 1.85615,-0.92807 1.20366,1.62968 2.69133,-1.34566 0.2006,-0.4012 -0.31718,-1.02849 0,-1.34566 0.31717,-0.31718 1.02848,0.31717 1.34566,0 0.31718,-0.31718 -0.31718,-1.02849 0,-1.34566 0.31718,-0.31718 1.02849,0.31717 1.34566,0 0.31718,-0.31718 0,-1.79422 0,-1.34567 0,0.89711 -0.4012,1.88893 0,2.69133 0.2006,0.4012 1.02849,-0.31718 1.34567,0 0.31717,0.31717 -0.31718,1.02849 0,1.34566 0.31717,0.31718 1.02848,0.31718 1.34566,0 0.31717,-0.31717 -0.31718,-1.02849 0,-1.34566 0.31717,-0.31718 0.94446,0.2006 1.34566,0 0.56738,-0.28369 0.81785,-0.99379 1.34567,-1.34566 0.83454,-0.55637 1.85678,-0.7893 2.69132,-1.34567 0.52781,-0.35187 0.77828,-1.06197 1.34566,-1.34566 0.4012,-0.2006 0.94447,0.2006 1.34567,0 1.13476,-0.56738 1.55656,-2.12395 2.69132,-2.69133 0.4012,-0.2006 0.89711,0 1.34567,0 0.44855,0 1.02848,-0.31717 1.34566,0 0.67283,0.67283 -0.67283,3.36416 0,4.03699 0.31718,0.31718 0.89711,0 1.34566,0 0.44856,0 0.89711,0 1.34567,0 0.88424,0 3.27776,0.25308 4.03699,0 4.87841,-1.62614 0.9577,-0.63847 4.03698,-2.69132 0.83455,-0.55637 1.9821,-0.63644 2.69133,-1.34567 0.70923,-0.70922 0.63644,-1.9821 1.34566,-2.69132 0.70923,-0.70923 1.9821,-0.63644 2.69133,-1.34567 0.70923,-0.70922 0.7893,-1.85678 1.34566,-2.69132 0.35188,-0.52781 0.89711,-0.89711 1.34567,-1.34567 1.79421,-1.79421 3.79754,-3.40127 5.38265,-5.38265 1.01031,-1.26289 1.72095,-2.74316 2.69132,-4.03699 0.38062,-0.50748 1.14507,-0.74386 1.34567,-1.34566 0.28369,-0.85107 -0.28369,-1.84025 0,-2.69133 0.2006,-0.60179 1.06197,-0.77828 1.34566,-1.34566 0.20477,-0.40953 0,-3.43096 0,-4.03699 0,-0.44855 0,-1.79422 0,-1.34566 0,4.48554 0,8.97109 0,13.45663 0,1.14199 0.24728,7.33214 0,8.07398 -0.2006,0.6018 -1.14506,0.74386 -1.34566,1.34566 -0.28369,0.85107 0.28369,1.84026 0,2.69133 -0.2006,0.6018 -0.89711,0.89711 -1.34567,1.34566 -0.44855,0.44855 -0.8971,0.89711 -1.34566,1.34566 -0.44855,0.44856 -0.89711,0.89711 -1.34566,1.34567 -0.44856,0.44855 -0.77828,1.06197 -1.34567,1.34566 -0.40119,0.2006 -0.8971,0 -1.34566,0 -0.44855,0 -0.89711,0 -1.34566,0 -1.34566,0 -2.73151,0.32637 -4.03699,0 -0.97305,-0.24326 -1.7398,-1.02849 -2.69133,-1.34566 -4.00581,-1.33527 2.76104,3.18635 -4.03699,-1.34567 -1.85123,-1.23415 -1.38398,-2.07598 -2.69132,-4.03699 -0.35188,-0.52781 -0.99379,-0.81785 -1.34566,-1.34566 -0.55637,-0.83454 -0.7893,-1.85678 -1.34567,-2.69133 -0.35187,-0.52781 -1.14506,-0.74386 -1.34566,-1.34566 -0.28369,-0.85107 0.28369,-1.84025 0,-2.69132 -0.2006,-0.6018 -1.34566,-0.71132 -1.34566,-1.34567 0,-0.44855 0.8971,0 1.34566,0 0.44855,0 0.92013,-0.14184 1.34566,0 0.95153,0.31718 1.76007,0.97316 2.69133,1.34567 1.317,0.5268 2.90222,0.49459 4.03699,1.34566 0.8024,0.6018 0.63643,1.9821 1.34566,2.69132 0.70923,0.70923 1.79422,0.89711 2.69133,1.34567 0.89711,0.44855 1.71827,1.1024 2.69132,1.34566 0.87033,0.21758 1.84026,-0.28369 2.69133,0 0.6018,0.2006 0.89711,0.89711 1.34566,1.34566 0.89711,0.44856 1.71828,1.1024 2.69133,1.34567 0.87032,0.21758 1.821,-0.21758 2.69132,0 0.97306,0.24326 1.70781,1.14896 2.69133,1.34566 1.31953,0.26391 2.71746,-0.26391 4.03699,0 0.98352,0.1967 1.71827,1.1024 2.69133,1.34566 0.87032,0.21758 1.79421,0 2.69132,0 1.79422,0 3.58844,0 5.38265,0 0.44856,0 0.89711,0 1.34567,0 0.44855,0 1.02848,-0.31717 1.34566,0 1.15964,1.15964 -3.94491,5.29058 -4.03699,5.38266 -4.33162,4.33162 1.98002,-2.61437 -1.34566,4.03698 -0.2006,0.4012 -1.02849,-0.31717 -1.34567,0 -0.31717,0.31718 0.31718,1.02849 0,1.34567 -0.8971,0.89711 -2.24277,-0.44856 -1.34566,-1.34567 0.31718,-0.31717 1.14507,0.4012 1.34566,0 0.4012,-0.80239 -0.28369,-1.84025 0,-2.69132 0.2006,-0.6018 1.06198,-0.77828 1.34567,-1.34566 0.2006,-0.4012 -0.2006,-0.94447 0,-1.34567 0.28369,-0.56738 0.99379,-0.81785 1.34566,-1.34566 4.87842,-9.75684 -1.41845,2.12768 2.69133,-4.03699 1.11272,-1.66909 1.48773,-3.77786 2.69132,-5.38265 0.76123,-1.01496 1.79422,-1.79422 2.69133,-2.69133 0.44855,-0.44855 0.71131,-1.34566 1.34566,-1.34566 0.44856,0 0,0.89711 0,1.34566 0,0.44856 0,0.89711 0,1.34566 0,3.15582 -0.31717,-0.63435 1.34567,2.69133 0.365,0.73001 -0.36821,5.01445 0,5.38265 0.31717,0.31718 1.02848,-0.31717 1.34566,0 0.31717,0.31718 -0.31718,1.02849 0,1.34567 0.13456,0.13456 3.90242,0.13456 4.03699,0 0.31717,-0.31718 -0.31718,-1.02849 0,-1.34567 0.31717,-0.31717 1.02848,0.31718 1.34566,0 0.67283,-0.67283 -0.67283,-3.36415 0,-4.03699 0.31718,-0.31717 0.89711,0 1.34566,0 0.44856,0 1.02849,-0.31717 1.34567,0 0.59807,0.59808 -1.04663,2.54181 1.34566,1.34567 5.60033,-2.80017 -1.43856,0.0929 1.34566,-2.69133 0.31718,-0.31717 0.94447,0.2006 1.34567,0 5.60032,-2.80016 -1.43857,0.0929 1.34566,-2.69133 0.31717,-0.31717 1.02849,-0.31717 1.34566,0 0.061,0.061 0,6.09384 0,6.72832 0,0.44855 -0.31717,1.02849 0,1.34566 0.31718,0.31718 0.89711,0 1.34567,0 0.44855,0 0.94446,0.2006 1.34566,0 0.56738,-0.28369 0.77828,-1.06197 1.34566,-1.34566 0.4012,-0.2006 0.94447,0.2006 1.34566,0 0.56739,-0.28369 0.77829,-1.06197 1.34567,-1.34566 0.40953,-0.20477 3.43096,0 4.03699,0 3.13988,0 6.27976,0 9.41964,0 0.32636,0 3.99371,0.0433 4.03699,0 0.31717,-0.31718 -0.2006,-0.94447 0,-1.34567 0.28369,-0.56738 1.06197,-0.77828 1.34566,-1.34566 0.2006,-0.4012 -0.31718,-1.02849 0,-1.34566 0.31718,-0.31718 1.02849,0.31717 1.34566,0 0.31718,-0.31718 0,-0.89711 0,-1.34567 0,-0.44855 0.31718,-1.02848 0,-1.34566 -0.2751,-0.2751 -3.50344,0.26677 -4.03699,0 -0.56738,-0.28369 -0.74386,-1.14506 -1.34566,-1.34566 -0.85107,-0.28369 -1.84025,-0.28369 -2.69132,0 -0.6018,0.2006 -0.89711,0.89711 -1.34567,1.34566 -1.78733,1.78733 -3.39931,2.83193 -4.03699,5.38265 -0.21758,0.87033 0.28369,1.84026 0,2.69133 -0.2006,0.6018 -0.89711,0.89711 -1.34566,1.34566 -0.44855,0.89711 -1.14896,1.70781 -1.34566,2.69133 0,7.65278 0.6018,0.88593 -1.34567,6.72831 -0.42553,1.27661 0.32637,2.73151 0,4.03699 -0.24326,0.97305 -0.89711,1.79422 -1.34566,2.69133 -0.44855,0.89711 -0.89711,1.79422 -1.34566,2.69133 -0.89711,1.79421 -1.79422,3.58843 -2.69133,5.38265 -0.44855,0.89711 -0.74386,1.88893 -1.34566,2.69132 -1.14183,1.52245 -2.69133,2.69133 -4.03699,4.03699 -0.89711,0.89711 -1.79422,1.79422 -2.69133,2.69133 -0.44855,0.44855 -0.77828,1.06197 -1.34566,1.34566 -0.4012,0.2006 -0.94446,-0.2006 -1.34566,0 -0.56738,0.28369 -0.77828,1.06198 -1.34567,1.34567 -0.4012,0.2006 -1.02848,-0.31718 -1.34566,0 -0.31718,0.31717 0.31718,1.02848 0,1.34566 -0.31718,0.31717 -0.89711,0 -1.34566,0 -0.44856,0 -0.89711,0 -1.34567,0 -0.32635,0 -3.99371,0.0433 -4.03698,0 -0.31718,-0.31718 0,-0.89711 0,-1.34566 0,-0.44856 0,-0.89711 0,-1.34567 0,-0.89711 -0.4012,-1.88892 0,-2.69132 0.92482,-1.84966 5.34535,-4.51831 6.72831,-5.38266 8.98552,-5.61595 5.19074,-2.69155 14.80229,-9.41964 1.83735,-1.28614 3.67982,-2.57741 5.38266,-4.03699 7.27663,-6.23711 0.56556,-2.17126 9.41964,-8.07397 2.17622,-1.45082 4.55209,-2.58618 6.72831,-4.03699 3.7322,-2.48814 7.11527,-5.46681 10.76531,-8.07398 1.31604,-0.94003 2.7741,-1.68102 4.03699,-2.69133 0.99069,-0.79255 1.79421,-1.79422 2.69132,-2.69132 0.44856,-0.44856 0.77828,-1.06198 1.34567,-1.34567 0.4012,-0.2006 1.02848,0.31718 1.34566,0 0.31718,-0.31717 -0.31718,-1.02848 0,-1.34566 0.31718,-0.31718 0.94446,0.2006 1.34566,0 0.56738,-0.28369 0.89711,-0.89711 1.34567,-1.34566"
       id="path3271-8"
       inkscape:connector-curvature="0" />
    <path
       style="fill:none;stroke:#888a85;stroke-width:1px;stroke-linecap:butt;stroke-linejoin:miter;stroke-opacity:1"
       d="m 40.369897,881.34404 c -6.94891,4.43813 -5.46501,4.24288 -8.073979,10.7653 -0.372504,0.93126 -1.028487,1.7398 -1.345663,2.69133 -0.283691,0.85107 0.401199,1.88892 0,2.69132 -0.283691,0.56738 -1.345663,0.71131 -1.345663,1.34566 0,0.89711 2.056974,-0.63435 2.691326,0 0.317176,0.31718 -0.317176,1.02849 0,1.34567 0.134566,0.13456 3.902419,0.13456 4.036989,0 0.31718,-0.31718 -0.31718,-1.02849 0,-1.34567 0.63435,-0.63435 2.05698,0.63436 2.69133,0 0.31717,-0.31717 -0.2006,-0.94446 0,-1.34566 0.28369,-0.56738 1.06197,-0.77828 1.34566,-1.34566 0.2006,-0.4012 -0.2006,-0.94447 0,-1.34566 0.28369,-0.56739 1.06197,-0.77829 1.34566,-1.34567 0.63435,-1.2687 0.71131,-2.76828 1.34567,-4.03699 0.28369,-0.56738 1.54626,-0.74386 1.34566,-1.34566 -0.82709,-2.48128 -4.75552,-4.21345 -4.03699,-6.72831 1.63401,-5.71905 8.20158,-1.9866 10.7653,-1.34567 0.43517,0.10879 0.89711,0 1.34567,0 2.24277,0 4.48554,0 6.72831,0 0.89711,0 1.79422,0 2.69133,0 0.44855,0 1.02849,-0.31717 1.34566,0 0.31718,0.31718 0.2006,0.94447 0,1.34567 -0.28369,0.56738 -1.06197,0.77828 -1.34566,1.34566 -0.2006,0.4012 0.2006,0.94446 0,1.34566 -3.07929,6.15857 0.55774,-5.71021 -2.69133,4.03699 -0.14184,0.42554 0.2006,0.94446 0,1.34566 -0.28369,0.56738 -1.06197,0.77829 -1.34566,1.34567 -0.2006,0.4012 0,0.89711 0,1.34566 0,0.44855 -0.31718,1.02849 0,1.34566 1.0561,1.0561 3.45274,-2.10707 4.03699,-2.69132 0.44855,-0.44856 0.81785,-0.99379 1.34566,-1.34567 2.4843,-1.6562 5.58968,-2.38079 8.07398,-4.03699 3.07929,-2.05285 -0.84143,-1.06518 4.03699,-2.69132 2.71091,-0.90364 0.74348,2.83263 1.34566,4.03699 0.28369,0.56738 1.06197,0.77828 1.34567,1.34566 0.26677,0.53354 -0.27511,3.76189 0,4.03699 0.31717,0.31718 1.02848,-0.31718 1.34566,0 1.79422,1.79422 -2.24277,1.34566 1.34566,1.34566 0.44856,0 0.89711,0 1.34566,0 0.44856,0 0.94447,0.2006 1.34567,0 0.56738,-0.28369 0.89711,-0.89711 1.34566,-1.34566 0.44856,-0.44855 0.89711,-0.89711 1.34566,-1.34566 1.79422,-1.79422 3.58844,-3.58844 5.38266,-5.38266 0.89711,-0.8971 1.6357,-1.98757 2.69133,-2.69132 0.83454,-0.55637 1.73979,-1.02849 2.69132,-1.34566 0.42554,-0.14185 1.02849,0.31717 1.34567,0 0.31717,-0.31718 -0.31718,-1.02849 0,-1.34567 0.31717,-0.31717 1.02848,-0.31717 1.34566,0 0.20883,0.20883 -0.17454,3.51336 0,4.03699 0.31717,0.95153 1.102403,1.71828 1.345663,2.69133 0.1639,0.65559 -0.35577,4.6711 0,5.38265 0.28369,0.56738 1.06197,0.77828 1.34566,1.34566 0.89711,1.79422 -1.34566,1.34567 1.34567,1.34567"
       id="path3273-9"
       inkscape:connector-curvature="0" />
    <path
       style="fill:none;stroke:#888a85;stroke-width:1px;stroke-linecap:butt;stroke-linejoin:miter;stroke-opacity:1"
       d="m 161.47957,888.07235 c -4.43168,-1.71904 -8.85012,-1.34566 -13.45663,-1.34566 -0.31977,0 -5.08105,-0.1508 -5.38265,0 -0.56739,0.28369 -0.77829,1.06197 -1.34567,1.34566 -0.4012,0.2006 -0.94446,-0.2006 -1.34566,0 -1.13476,0.56738 -1.55656,2.12395 -2.69133,2.69133 -1.85615,0.92807 -1.20365,-1.62968 -2.69132,1.34566 -0.11792,0.23583 -0.003,9.41272 0,9.41964 0.2006,0.4012 0.94446,-0.2006 1.34566,0 0.56738,0.28369 0.77828,1.06197 1.34566,1.34566 0.4012,0.2006 0.94447,-0.2006 1.34567,0 0.56738,0.28369 0.74386,1.14507 1.34566,1.34567 0.53593,0.17864 7.53805,0.17864 8.07398,0 0.6018,-0.2006 0.81785,-0.99379 1.34566,-1.34567 2.4843,-1.6562 5.58968,-2.38078 8.07398,-4.03699 0.52781,-0.35187 0.89711,-0.8971 1.34566,-1.34566 0.89711,-0.89711 2.34279,-1.47144 2.69133,-2.69132 0.61614,-2.15648 -2.24277,-6.72832 0,-6.72832 2.6155,0 2.58617,4.55209 4.03699,6.72832 0.35187,0.52781 1.06197,0.77828 1.34566,1.34566 0.2006,0.4012 -0.31717,1.02849 0,1.34566 0.31718,0.31718 1.02849,-0.31717 1.34566,0 0.31718,0.31718 -0.31717,1.02849 0,1.34566 0.31718,0.31718 0.89711,0 1.34567,0 0.44855,0 0.89711,0 1.34566,0 1.35515,0 7.3298,0.24806 8.07398,0 0.6018,-0.20059 0.77828,-1.06197 1.34566,-1.34566 0.4012,-0.2006 0.89711,0 1.34566,0 0.44856,0 0.89711,0 1.34567,0"
       id="path3275-1"
       inkscape:connector-curvature="0" />
    <path
       style="fill:none;stroke:#888a85;stroke-width:1px;stroke-linecap:butt;stroke-linejoin:miter;stroke-opacity:1"
       d="m 252.98466,890.76368 c -3.13988,0 -6.27976,0 -9.41964,0 -0.44856,0 -0.94447,-0.2006 -1.34567,0 -1.13476,0.56738 -1.55656,2.12394 -2.69132,2.69132 -0.8024,0.4012 -1.88893,-0.4012 -2.69133,0 -0.56738,0.28369 -0.77828,1.06197 -1.34566,1.34567 -0.4012,0.2006 -0.94447,-0.2006 -1.34567,0 -0.56738,0.28369 -0.77828,1.06197 -1.34566,1.34566 -0.4012,0.2006 -1.02849,-0.31718 -1.34566,0 -0.31718,0.31717 0.31717,1.02849 0,1.34566 -0.31718,0.31718 -1.02849,-0.31717 -1.34566,0 -0.31718,0.31718 0.20059,0.94447 0,1.34566 -0.2837,0.56739 -1.06198,0.77829 -1.34567,1.34567 -0.2006,0.4012 0,0.89711 0,1.34566 0,0.44856 -0.2006,0.94446 0,1.34566 2.80017,5.60033 -0.0929,-1.43856 2.69133,1.34567 0.31717,0.31717 0,0.89711 0,1.34566 0.89711,0 1.821,-0.21758 2.69132,0 0.97306,0.24326 1.71828,1.1024 2.69133,1.34566 0.67121,0.1678 7.34705,0.14539 8.07398,0 2.70228,0.3088 4.3849,-2.10547 6.72831,-2.69132 0.87033,-0.21758 1.82101,0.21758 2.69133,0 0.97305,-0.24327 1.71828,-1.1024 2.69133,-1.34567 0.87032,-0.21758 1.821,0.21758 2.69132,0 0.97305,-0.24326 1.79422,-0.8971 2.69133,-1.34566 0.89711,-0.44855 1.85678,-0.7893 2.69132,-1.34566 1.58344,-1.05563 2.51455,-2.89516 4.03699,-4.03699 0.8024,-0.6018 1.85679,-0.7893 2.69133,-1.34566 1.31969,-0.8798 2.22442,-2.63627 2.69133,-4.03699 0.14184,-0.42554 -0.2006,-0.94447 0,-1.34567 0.28369,-0.56738 1.06197,-0.77828 1.34566,-1.34566 0.2006,-0.4012 0,-0.89711 0,-1.34566 0,-0.44856 0.31718,-1.02849 0,-1.34567 -0.0541,-0.0541 -4.88848,0 -5.38265,0 -0.44856,0 -1.02849,-0.31717 -1.34567,0 -0.31717,0.31718 0,0.89711 0,1.34567 0,0.44855 0,0.89711 0,1.34566 0,1.84641 -0.70644,4.3566 1.34567,5.38265 0.4012,0.2006 1.02848,-0.31717 1.34566,0 0.31718,0.31718 -0.31718,1.02849 0,1.34567 0.31718,0.31717 0.94446,-0.2006 1.34566,0 0.56738,0.28369 0.74387,1.14506 1.34567,1.34566 0.41784,0.13928 9.39074,0.0145 9.41964,0 0.56738,-0.28369 0.77828,-1.06197 1.34566,-1.34566 0.4012,-0.2006 0.94446,0.2006 1.34566,0 0.56739,-0.2837 0.89711,-0.89711 1.34567,-1.34567 0.44855,-0.44855 1.06197,-0.77828 1.34566,-1.34566 0.4012,-0.8024 -0.4012,-1.88893 0,-2.69133 0.89711,-1.79421 2.87712,-0.97407 1.34566,-4.03699 -0.2006,-0.40119 -1.02848,0.31718 -1.34566,0 -0.31718,-0.31717 0.31718,-1.02848 0,-1.34566 -2.07836,-2.07836 -1.38195,4.0007 -1.34566,4.03699 0.63435,0.63435 1.88892,-0.4012 2.69132,0 0.56738,0.28369 0.77828,1.06197 1.34567,1.34566 0.48663,0.24332 5.79235,0 6.72831,0 0.44856,0 1.02849,0.31718 1.34566,0 0.31718,-0.31717 -0.31717,-1.02848 0,-1.34566 0.31718,-0.31718 1.02849,0.31718 1.34567,0 0.31717,-0.31718 -0.44856,-1.34566 0,-1.34566 0.44855,0 0,0.89711 0,1.34566 0,0.49418 -0.0541,5.3285 0,5.38265 0.31717,0.31718 0.89711,0 1.34566,0 0.44856,0 0.89711,0 1.34566,0 3.42897,0 1.79358,-1.56962 4.03699,-2.69132 0.4012,-0.2006 1.02849,0.31717 1.34567,0 0.31717,-0.31718 -0.31718,-1.02849 0,-1.34567 0.63435,-0.63435 2.05697,0.63436 2.69132,0 0.31718,-0.31717 0,-1.79421 0,-1.34566 0,0.89711 0,1.79422 0,2.69133 0,0.44855 -0.31717,1.02848 0,1.34566 0.31718,0.31718 1.02849,-0.31718 1.34567,0 0.31717,0.31718 -0.31718,1.02849 0,1.34566 0.31717,0.31718 0.8971,0 1.34566,0 1.21293,0 5.88135,0.28232 6.72831,0 0.95153,-0.31717 1.79422,-0.89711 2.69133,-1.34566 0.89711,-0.44855 1.88893,-0.74386 2.69133,-1.34566 1.01496,-0.76123 1.67636,-1.93011 2.69132,-2.69133 0.8024,-0.6018 1.7398,-1.02849 2.69133,-1.34566 0.42553,-0.14185 1.02849,0.31717 1.34566,0 0.31718,-0.31718 -0.44855,-1.34567 0,-1.34567 0.44856,0 -0.31717,1.02849 0,1.34567 0.31718,0.31717 0.94447,-0.2006 1.34566,0 1.13477,0.56738 1.55657,2.12394 2.69133,2.69132 0.40953,0.20477 3.43096,0 4.03699,0 1.54302,0 3.98869,0.34849 5.38265,0 0.97305,-0.24326 1.7398,-1.02848 2.69133,-1.34566 0.42553,-0.14184 1.02849,0.31718 1.34566,0 0.70923,-0.70923 0.7893,-1.85678 1.34566,-2.69133 0.35188,-0.52781 0.89711,-0.8971 1.34567,-1.34566 0.44855,-0.44855 1.06197,-0.77828 1.34566,-1.34566 0.2006,-0.4012 -0.44855,-1.34566 0,-1.34566 0.44855,0 0.2006,0.94446 0,1.34566 -0.28369,0.56738 -0.99379,0.81785 -1.34566,1.34566 -4.19268,6.28901 2.63512,-1.61183 -4.03699,6.72832 -0.79255,0.99069 -2.03859,1.60342 -2.69133,2.69132 -0.72979,1.21632 -0.61587,2.82068 -1.34566,4.03699 -0.65274,1.08791 -1.93011,1.67637 -2.69133,2.69133 -0.6018,0.8024 -0.74386,1.88893 -1.34566,2.69132 -1.14183,1.52245 -2.98136,2.45356 -4.03699,4.03699 -1.11273,1.66909 -1.5786,3.71357 -2.69133,5.38266 -0.70375,1.05562 -2.29012,1.48772 -2.69132,2.69132 -0.28369,0.85107 0.63435,2.05698 0,2.69133 -0.63435,0.63435 -1.88893,-0.4012 -2.69133,0 -0.4012,0.2006 0.31718,1.02848 0,1.34566 -0.31717,0.31718 -1.02849,0.31718 -1.34566,0 -0.31718,-0.31718 0.2006,-0.94446 0,-1.34566 -0.28369,-0.56738 -1.06197,-0.77828 -1.34566,-1.34567 -0.2006,-0.40119 0,-0.8971 0,-1.34566 0,-0.89711 0.21758,-1.821 0,-2.69132 -0.24327,-0.97306 -1.34567,-1.68833 -1.34567,-2.69133 0,-2.78564 2.67626,-6.03288 4.03699,-8.07398 0.89711,-1.34566 1.54773,-2.89339 2.69133,-4.03699 0.70922,-0.70922 1.88893,-0.74386 2.69132,-1.34566 1.01497,-0.76122 1.70064,-1.89877 2.69133,-2.69133 1.26289,-1.01031 2.69133,-1.79421 4.03699,-2.69132 1.34566,-0.89711 2.65018,-1.85924 4.03699,-2.69133 0.86006,-0.51604 1.85678,-0.7893 2.69132,-1.34566 0.52782,-0.35188 0.74387,-1.14507 1.34567,-1.34567 0.85107,-0.28369 1.821,0.21759 2.69132,0 0.97306,-0.24326 1.7398,-1.02848 2.69133,-1.34566 0.42554,-0.14184 0.92013,0.14185 1.34566,0 0.95153,-0.31717 1.7398,-1.02849 2.69133,-1.34566 0.42554,-0.14185 1.02849,-0.31718 1.34566,0 0.31718,0.31717 0,0.89711 0,1.34566 0,0.44856 0.2006,0.94447 0,1.34566 -0.28369,0.56739 -1.06197,0.77829 -1.34566,1.34567 -0.2006,0.4012 0.2006,0.94446 0,1.34566 -0.28369,0.56738 -0.89711,0.89711 -1.34566,1.34566 -1.53965,1.53965 -1.59296,1.87665 -4.03699,2.69133 -0.42554,0.14184 -0.94447,-0.2006 -1.34567,0 -0.56738,0.28369 -0.77828,1.06197 -1.34566,1.34566 -0.84578,0.42289 -4.53687,-0.42289 -5.38265,0 -0.56738,0.28369 -0.77828,1.06197 -1.34566,1.34567 -0.4012,0.2006 -0.89711,0 -1.34567,0 -0.44855,0 -1.02848,0.31717 -1.34566,0 -0.31718,-0.31718 0,-0.89711 0,-1.34567 0,-0.44855 -0.31718,-1.02848 0,-1.34566 0.31718,-0.31718 1.02849,0.31718 1.34566,0 0.31718,-0.31718 -0.31717,-1.02849 0,-1.34566 0.63435,-0.63436 1.88893,0.4012 2.69133,0 1.13476,-0.56738 1.48773,-2.29013 2.69132,-2.69133 0.85108,-0.28369 1.84026,0.28369 2.69133,0 0.6018,-0.2006 0.77828,-1.06197 1.34566,-1.34566 0.27604,-0.13802 3.84722,-0.18978 4.03699,0 0.63435,0.63435 -0.63435,2.05697 0,2.69132 0.31718,0.31718 1.02849,-0.31717 1.34567,0 0.63435,0.63436 -0.63436,2.05698 0,2.69133 0.31717,0.31718 0.94446,-0.2006 1.34566,0 1.13476,0.56738 1.55656,2.12394 2.69133,2.69133 0.40119,0.2006 0.8971,0 1.34566,0 0.44855,0 0.89711,0 1.34566,0 0.44856,0 1.02849,0.31717 1.34566,0 0.31718,-0.31718 -0.20059,-0.94447 0,-1.34567 0.66209,-1.32417 4.72057,-4.05848 5.38266,-5.38265 0.4012,-0.8024 -0.89711,-2.69133 0,-2.69133 0.44855,0 0,0.89711 0,1.34567 0,0.49417 -0.0541,5.3285 0,5.38265 0.18977,0.18977 3.76095,0.13802 4.03699,0 0.56738,-0.28369 0.74386,-1.14506 1.34566,-1.34566 0.85107,-0.28369 1.84025,0.28369 2.69133,0 0.60179,-0.2006 0.81785,-0.99379 1.34566,-1.34567 0.83454,-0.55636 1.85678,-0.7893 2.69132,-1.34566 0.68784,-0.45855 2.78215,-3.94617 4.03699,-2.69133 0.31718,0.31718 0,0.89711 0,1.34567 0,1.84641 -0.70644,4.3566 1.34567,5.38265 0.4012,0.2006 0.89711,0 1.34566,0 0.44855,0 0.94446,0.2006 1.34566,0 1.6148,-0.8074 2.4222,-3.22959 4.03699,-4.03699 0.4012,-0.2006 1.02849,0.31718 1.34567,0 0.70922,-0.70923 0.63643,-1.9821 1.34566,-2.69133 1.14359,-1.14359 2.89339,-1.54773 4.03699,-2.69132 1.41845,-1.41846 1.27287,-3.9642 2.69132,-5.38265 0.70923,-0.70923 2.08953,-0.54327 2.69133,-1.34567 0.0426,-0.0567 2.55452,-7.73196 2.69133,-8.07398 0.3725,-0.93126 1.1024,-1.71827 1.34566,-2.69132 0.21758,-0.87033 0,-1.79422 0,-2.69133 0,-1.34566 0,-2.69132 0,-4.03699 0,-0.44855 0.31717,-1.02848 0,-1.34566 -0.31718,-0.31718 -0.89711,0 -1.34566,0 -0.44856,0 -1.02849,-0.31718 -1.34567,0 -0.31717,0.31718 0.31718,1.02849 0,1.34566 -0.31717,0.31718 -0.94446,-0.2006 -1.34566,0 -0.56738,0.28369 -0.89711,0.89711 -1.34566,1.34567 -0.44856,0.44855 -0.99379,0.81785 -1.34567,1.34566 -1.11272,1.66909 -1.5786,3.71356 -2.69132,5.38265 -0.35188,0.52781 -0.99379,0.81785 -1.34567,1.34566 -0.55636,0.83455 -0.82962,1.83127 -1.34566,2.69133 -0.83209,1.38681 -1.96805,2.59045 -2.69132,4.03699 -3.49373,6.98745 1.21977,1.47155 -4.03699,6.72832 -1.53965,1.53964 -1.87665,1.59295 -2.69133,4.03698 -0.14185,0.42554 0.31718,1.02849 0,1.34567 -0.31718,0.31717 -0.94446,-0.2006 -1.34566,0 -0.56738,0.28369 -0.77828,1.06197 -1.34567,1.34566 -0.4012,0.2006 -1.34566,0.44855 -1.34566,0 0,-0.44855 0.89711,0 1.34566,0 0.89711,0 1.79422,0 2.69133,0 3.58843,0 7.17687,0 10.7653,0 0.44856,0 1.02849,0.31718 1.34567,0 0.31717,-0.31718 -0.31718,-1.02849 0,-1.34566 1.79421,-1.79422 1.34566,2.24277 1.34566,-1.34567 0,-0.44855 0,-0.8971 0,-1.34566 0,-0.44855 -0.44855,-1.34566 0,-1.34566 0.0988,0 -0.12345,3.79008 0,4.03699 2.80016,5.60032 -0.0929,-1.43856 2.69133,1.34566 0.31717,0.31718 -0.31718,1.02849 0,1.34566 0.31717,0.31718 1.02848,0.31718 1.34566,0 1.53146,-1.53146 -2.87712,-2.50553 -1.34566,-4.03699 0.63435,-0.63435 2.05697,0.63436 2.69132,0 0.31718,-0.31717 -0.31717,-1.02848 0,-1.34566 0.31718,-0.31717 0.94447,0.2006 1.34567,0 0.56738,-0.28369 0.77828,-1.06197 1.34566,-1.34566 0.48664,-0.24332 5.79235,0 6.72831,0 0.44856,0 1.02849,0.31717 1.34567,0 0.31717,-0.31718 -0.31718,-1.02849 0,-1.34566 0.31717,-0.31718 1.02848,0.31717 1.34566,0 0.31718,-0.31718 -0.31718,-1.02849 0,-1.34567 0.31718,-0.31717 1.02849,0.31718 1.34566,0 0.63435,-0.63435 -0.63435,-2.05697 0,-2.69132 0.31718,-0.31718 1.02849,0.31717 1.34567,0 0.63435,-0.63436 -0.63436,-2.05698 0,-2.69133 0.31717,-0.31718 1.02848,0.31718 1.34566,0 0.31718,-0.31718 -0.31718,-1.02849 0,-1.34566 0.31718,-0.31718 0.94446,0.2006 1.34566,0 1.13477,-0.56738 1.55657,-2.12395 2.69133,-2.69133 0.4012,-0.2006 1.02849,0.31718 1.34566,0 1.79422,-1.79422 -2.24277,-1.34566 1.34566,-1.34566"
       id="path3277-3"
       inkscape:connector-curvature="0" />
  </g>
</svg>
